<svg xmlns="http://www.w3.org/2000/svg" data-name="Layer 1" viewBox="0 0 32 32"><path fill="white" d="M13.9 11.665a4.041 4.041 0 0 0 1.12-3.673l-.9-4.124a3.661 3.661 0 0 0-4.068-2.838L4.6 1.71a4.118 4.118 0 0 0-3.565 4.505A28.9 28.9 0 0 0 9.2 22.8a28.9 28.9 0 0 0 16.583 8.163 4.113 4.113 0 0 0 4.506-3.563l.681-5.454a3.665 3.665 0 0 0-2.839-4.075l-4.124-.9a4.049 4.049 0 0 0-3.673 1.12l-.79.79a1.911 1.911 0 0 1-2.489.286 26.5 26.5 0 0 1-4.228-4.227 1.912 1.912 0 0 1 .286-2.49Zm-1.414-1.414-.79.79a3.882 3.882 0 0 0-.438 5.148 28.379 28.379 0 0 0 4.55 4.55 3.882 3.882 0 0 0 5.147-.439l.79-.79a2.018 2.018 0 0 1 1.834-.579l4.123.9a1.653 1.653 0 0 1 1.28 1.872l-.68 5.454a2.1 2.1 0 0 1-2.247 1.83 26.914 26.914 0 0 1-15.442-7.6 26.91 26.91 0 0 1-7.6-15.444A2.114 2.114 0 0 1 4.846 3.7s5.611-.7 5.688-.7a1.639 1.639 0 0 1 1.637 1.295l.9 4.122a2.028 2.028 0 0 1-.582 1.834Z"/></svg>