<svg xmlns="http://www.w3.org/2000/svg" viewBox="0 0 24 24" id="chrome">
  <path d="M.425 15.167c-.008-.028-.01-.057-.017-.085l-.003.001.02.084z"></path>
  <path fill="none" d="M0 0h24v24H0z"></path>
  <path fill="#EA4335" d="M2.898 4.181C8.476-2.312 18.82-1.03 22.686 6.554h-9.293c-1.674.001-2.755-.038-3.926.579-1.376.724-2.414 2.067-2.777 3.644L2.898 4.181z"></path>
  <path fill="#4285F4" d="M8.008 12c0 2.2 1.789 3.991 3.988 3.991A3.994 3.994 0 0 0 15.984 12c0-2.2-1.789-3.991-3.988-3.991A3.994 3.994 0 0 0 8.008 12z"></path>
  <path fill="#34A853" d="M13.544 17.223c-2.239.665-4.858-.073-6.293-2.549a4274.147 4274.147 0 0 1-5.305-9.225c-4.607 7.061-.636 16.683 7.727 18.325l3.871-6.551z"></path>
  <path fill="#FBBC05" d="M15.701 8.009a5.463 5.463 0 0 1 1.008 6.719c-.952 1.64-3.988 6.766-5.46 9.248 8.617.531 14.899-7.914 12.061-15.967h-7.609z"></path>
</svg>