<svg width="1440" height="960" viewBox="0 0 1440 960" fill="none" xmlns="http://www.w3.org/2000/svg">
<g id="Frame 1">
<path id="WEB" class="animated-path" d="M1148.03 319.697L1140.9 271.972L1146.59 272.65L1151.76 311.445L1152.21 311.498L1166.54 275.03L1172.86 275.784L1178.21 314.599L1178.66 314.653L1192.81 278.163L1198.49 278.842L1180.34 323.552L1174.57 322.863L1168.76 284.816L1168.4 284.773L1153.8 320.386L1148.03 319.697ZM1199.95 325.891L1205.47 279.673L1233.36 283L1232.77 287.965L1210.47 285.306L1208.61 300.922L1229.46 303.41L1228.87 308.374L1208.02 305.887L1206.14 321.594L1228.8 324.297L1228.21 329.261L1199.95 325.891ZM1237.94 330.422L1243.45 284.204L1259.61 286.131C1262.83 286.515 1265.42 287.389 1267.37 288.751C1269.33 290.099 1270.71 291.767 1271.51 293.754C1272.32 295.727 1272.58 297.842 1272.31 300.098C1272.08 302.084 1271.53 303.682 1270.67 304.891C1269.82 306.103 1268.78 307.016 1267.55 307.632C1266.33 308.25 1265.04 308.66 1263.67 308.863L1263.62 309.315C1265.02 309.574 1266.38 310.24 1267.7 311.313C1269.03 312.386 1270.07 313.823 1270.83 315.622C1271.59 317.422 1271.83 319.541 1271.54 321.978C1271.26 324.295 1270.48 326.316 1269.21 328.041C1267.94 329.766 1266.1 331.034 1263.7 331.847C1261.3 332.659 1258.28 332.848 1254.64 332.414L1237.94 330.422ZM1244.12 326.124L1255.23 327.449C1258.88 327.885 1261.56 327.487 1263.27 326.256C1264.99 325.012 1265.97 323.374 1266.21 321.343C1266.4 319.778 1266.17 318.286 1265.53 316.867C1264.89 315.433 1263.88 314.23 1262.5 313.256C1261.13 312.268 1259.43 311.654 1257.41 311.413L1246.04 310.056L1244.12 326.124ZM1246.62 305.182L1257 306.42C1258.69 306.621 1260.25 306.471 1261.68 305.971C1263.13 305.472 1264.32 304.669 1265.26 303.56C1266.22 302.454 1266.79 301.088 1266.99 299.463C1267.23 297.432 1266.73 295.625 1265.48 294.042C1264.24 292.444 1262.08 291.462 1259.01 291.096L1248.45 289.836L1246.62 305.182Z" fill="none"/>
<g id="ERROR 401" class="animated-path">
<mask id="path-2-outside-1_63_5" maskUnits="userSpaceOnUse" x="70.7416" y="655.288" width="331.222" height="121.377" fill="none">
<rect fill="white" x="70.7416" y="655.288" width="331.222" height="121.377"/>
<path d="M83.0359 774.356L72.8744 728.933L100.288 722.801L101.379 727.68L79.4663 732.582L82.8998 747.93L103.393 743.346L104.485 748.225L83.9914 752.81L87.4447 768.246L109.712 763.265L110.804 768.144L83.0359 774.356ZM120.363 766.006L110.202 720.583L125.55 717.149C129.098 716.356 132.147 716.31 134.695 717.013C137.24 717.702 139.294 718.973 140.858 720.828C142.422 722.683 143.503 724.948 144.102 727.625C144.701 730.301 144.685 732.796 144.054 735.111C143.423 737.426 142.108 739.428 140.111 741.117C138.11 742.791 135.35 744.022 131.831 744.809L119.41 747.588L118.299 742.62L130.542 739.881C132.967 739.338 134.839 738.547 136.159 737.506C137.493 736.462 138.348 735.215 138.722 733.765C139.108 732.297 139.097 730.654 138.69 728.835C138.284 727.017 137.588 725.503 136.603 724.295C135.619 723.087 134.297 722.28 132.639 721.875C130.977 721.455 128.918 721.519 126.464 722.069L116.794 724.232L125.864 764.775L120.363 766.006ZM137.179 740.818L152.922 758.722L146.535 760.151L130.969 742.207L137.179 740.818ZM160.313 757.068L150.152 711.646L165.5 708.212C169.048 707.418 172.097 707.373 174.645 708.076C177.19 708.764 179.244 710.036 180.808 711.891C182.372 713.746 183.453 716.011 184.052 718.687C184.651 721.364 184.635 723.859 184.004 726.174C183.373 728.489 182.058 730.491 180.061 732.18C178.06 733.854 175.3 735.085 171.781 735.872L159.36 738.65L158.249 733.682L170.492 730.943C172.917 730.401 174.789 729.609 176.109 728.569C177.443 727.525 178.298 726.278 178.672 724.828C179.058 723.36 179.047 721.717 178.641 719.898C178.234 718.079 177.538 716.566 176.554 715.358C175.569 714.15 174.247 713.343 172.589 712.938C170.927 712.518 168.868 712.582 166.414 713.131L156.744 715.295L165.814 755.838L160.313 757.068ZM177.129 731.881L192.872 749.785L186.485 751.214L170.919 733.27L177.129 731.881ZM233.508 716.846C234.58 721.637 234.641 725.97 233.692 729.847C232.742 733.723 230.971 736.945 228.378 739.513C225.785 742.08 222.552 743.797 218.678 744.664C214.804 745.53 211.147 745.355 207.707 744.137C204.267 742.919 201.292 740.759 198.782 737.657C196.271 734.554 194.48 730.607 193.408 725.817C192.336 721.026 192.275 716.693 193.225 712.816C194.174 708.939 195.945 705.718 198.538 703.15C201.131 700.583 204.364 698.866 208.238 697.999C212.112 697.132 215.769 697.308 219.209 698.526C222.649 699.744 225.624 701.904 228.134 705.006C230.645 708.109 232.436 712.055 233.508 716.846ZM228.185 718.037C227.305 714.104 225.905 710.932 223.983 708.52C222.077 706.105 219.852 704.453 217.308 703.562C214.779 702.669 212.14 702.529 209.389 703.145C206.639 703.76 204.303 705.012 202.382 706.902C200.475 708.788 199.166 711.231 198.455 714.231C197.759 717.228 197.851 720.693 198.731 724.626C199.611 728.559 201.004 731.733 202.911 734.148C204.832 736.559 207.057 738.212 209.586 739.106C212.13 739.996 214.776 740.134 217.527 739.518C220.277 738.903 222.605 737.652 224.512 735.766C226.434 733.877 227.743 731.434 228.439 728.437C229.149 725.437 229.065 721.97 228.185 718.037ZM247.837 737.488L237.676 692.066L253.024 688.632C256.572 687.838 259.621 687.793 262.169 688.496C264.714 689.184 266.769 690.456 268.332 692.311C269.896 694.166 270.978 696.431 271.576 699.107C272.175 701.784 272.159 704.279 271.528 706.594C270.897 708.909 269.582 710.911 267.585 712.6C265.584 714.274 262.824 715.505 259.305 716.292L246.884 719.07L245.773 714.102L258.016 711.363C260.441 710.821 262.313 710.029 263.633 708.989C264.968 707.945 265.822 706.698 266.196 705.248C266.582 703.78 266.571 702.137 266.165 700.318C265.758 698.499 265.062 696.986 264.078 695.778C263.093 694.57 261.772 693.763 260.113 693.358C258.451 692.938 256.392 693.002 253.938 693.551L244.268 695.715L253.338 736.258L247.837 737.488ZM264.653 712.301L280.396 730.205L274.009 731.634L258.443 713.69L264.653 712.301ZM301.406 715.723L300.394 711.199L313.29 675.15L316.572 674.416L318.14 681.424L315.922 681.921L306.179 709.159L306.259 709.514L333.14 703.5L334.231 708.38L301.406 715.723ZM324.871 720.255L322.479 709.565L322.008 707.458L314.709 674.833L319.944 673.662L330.105 719.084L324.871 720.255ZM359.581 713.142C356.24 713.89 353.19 713.617 350.432 712.324C347.671 711.017 345.281 708.765 343.261 705.568C341.239 702.356 339.675 698.281 338.57 693.343C337.472 688.434 337.155 684.103 337.62 680.35C338.096 676.58 339.305 673.515 341.245 671.155C343.198 668.778 345.83 667.218 349.142 666.477C352.454 665.737 355.492 666.027 358.257 667.35C361.033 668.654 363.432 670.912 365.455 674.123C367.489 677.317 369.055 681.368 370.153 686.277C371.258 691.216 371.58 695.569 371.118 699.336C370.654 703.089 369.451 706.145 367.51 708.504C365.566 710.849 362.923 712.395 359.581 713.142ZM358.49 708.263C361.802 707.522 364.017 705.349 365.136 701.746C366.255 698.142 366.153 693.382 364.83 687.468C363.95 683.535 362.78 680.28 361.318 677.704C359.872 675.124 358.203 673.285 356.311 672.186C354.435 671.085 352.402 670.779 350.214 671.268C346.931 672.003 344.728 674.195 343.604 677.847C342.477 681.484 342.573 686.252 343.893 692.152C344.773 696.085 345.935 699.334 347.378 701.899C348.821 704.464 350.479 706.29 352.353 707.377C354.241 708.46 356.287 708.756 358.49 708.263ZM389.469 658.108L399.631 703.531L394.13 704.761L385.259 665.105L384.993 665.165L375.551 675.009L374.3 669.42L383.969 659.338L389.469 658.108Z"/>
</mask>
<path d="M83.0359 774.356L82.06 774.575L82.2783 775.55L83.2542 775.332L83.0359 774.356ZM72.8744 728.933L72.656 727.958L71.6802 728.176L71.8985 729.152L72.8744 728.933ZM100.288 722.801L101.264 722.583L101.045 721.607L100.069 721.825L100.288 722.801ZM101.379 727.68L101.598 728.656L102.573 728.438L102.355 727.462L101.379 727.68ZM79.4663 732.582L79.248 731.606L78.2721 731.825L78.4904 732.801L79.4663 732.582ZM82.8998 747.93L81.9239 748.149L82.1422 749.124L83.1181 748.906L82.8998 747.93ZM103.393 743.346L104.369 743.127L104.151 742.151L103.175 742.37L103.393 743.346ZM104.485 748.225L104.703 749.201L105.679 748.983L105.461 748.007L104.485 748.225ZM83.9914 752.81L83.7731 751.834L82.7972 752.052L83.0155 753.028L83.9914 752.81ZM87.4447 768.246L86.4688 768.465L86.6871 769.44L87.663 769.222L87.4447 768.246ZM109.712 763.265L110.688 763.046L110.47 762.071L109.494 762.289L109.712 763.265ZM110.804 768.144L111.022 769.12L111.998 768.902L111.78 767.926L110.804 768.144ZM83.0359 774.356L84.0118 774.138L73.8502 728.715L72.8744 728.933L71.8985 729.152L82.06 774.575L83.0359 774.356ZM72.8744 728.933L73.0927 729.909L100.506 723.777L100.288 722.801L100.069 721.825L72.656 727.958L72.8744 728.933ZM100.288 722.801L99.3118 723.019L100.403 727.899L101.379 727.68L102.355 727.462L101.264 722.583L100.288 722.801ZM101.379 727.68L101.161 726.704L79.248 731.606L79.4663 732.582L79.6846 733.558L101.598 728.656L101.379 727.68ZM79.4663 732.582L78.4904 732.801L81.9239 748.149L82.8998 747.93L83.8757 747.712L80.4422 732.364L79.4663 732.582ZM82.8998 747.93L83.1181 748.906L103.612 744.322L103.393 743.346L103.175 742.37L82.6815 746.954L82.8998 747.93ZM103.393 743.346L102.417 743.564L103.509 748.443L104.485 748.225L105.461 748.007L104.369 743.127L103.393 743.346ZM104.485 748.225L104.267 747.249L83.7731 751.834L83.9914 752.81L84.2097 753.786L104.703 749.201L104.485 748.225ZM83.9914 752.81L83.0155 753.028L86.4688 768.465L87.4447 768.246L88.4206 768.028L84.9673 752.591L83.9914 752.81ZM87.4447 768.246L87.663 769.222L109.931 764.241L109.712 763.265L109.494 762.289L87.2264 767.27L87.4447 768.246ZM109.712 763.265L108.737 763.483L109.828 768.362L110.804 768.144L111.78 767.926L110.688 763.046L109.712 763.265ZM110.804 768.144L110.586 767.168L82.8176 773.38L83.0359 774.356L83.2542 775.332L111.022 769.12L110.804 768.144ZM120.363 766.006L119.387 766.224L119.606 767.2L120.582 766.982L120.363 766.006ZM110.202 720.583L109.983 719.607L109.008 719.825L109.226 720.801L110.202 720.583ZM134.695 717.013L134.429 717.977L134.434 717.979L134.695 717.013ZM140.858 720.828L140.094 721.473L140.094 721.473L140.858 720.828ZM144.054 735.111L143.089 734.848L143.089 734.848L144.054 735.111ZM140.111 741.117L140.752 741.884L140.756 741.881L140.111 741.117ZM119.41 747.588L118.434 747.806L118.653 748.782L119.629 748.564L119.41 747.588ZM118.299 742.62L118.081 741.644L117.105 741.862L117.323 742.838L118.299 742.62ZM136.159 737.506L135.543 736.719L135.54 736.721L136.159 737.506ZM138.722 733.765L137.755 733.511L137.754 733.516L138.722 733.765ZM132.639 721.875L132.394 722.844L132.401 722.846L132.639 721.875ZM116.794 724.232L116.575 723.256L115.599 723.474L115.818 724.45L116.794 724.232ZM125.864 764.775L126.082 765.751L127.058 765.533L126.84 764.557L125.864 764.775ZM137.179 740.818L137.93 740.158L137.539 739.713L136.961 739.842L137.179 740.818ZM152.922 758.722L153.14 759.698L154.788 759.329L153.673 758.062L152.922 758.722ZM146.535 760.151L145.779 760.806L146.17 761.257L146.753 761.127L146.535 760.151ZM130.969 742.207L130.751 741.231L129.116 741.597L130.214 742.862L130.969 742.207ZM120.363 766.006L121.339 765.787L111.178 720.365L110.202 720.583L109.226 720.801L119.387 766.224L120.363 766.006ZM110.202 720.583L110.42 721.559L125.768 718.125L125.55 717.149L125.331 716.174L109.983 719.607L110.202 720.583ZM125.55 717.149L125.768 718.125C129.214 717.355 132.087 717.331 134.429 717.977L134.695 717.013L134.961 716.049C132.207 715.289 128.983 715.357 125.331 716.174L125.55 717.149ZM134.695 717.013L134.434 717.979C136.8 718.619 138.673 719.787 140.094 721.473L140.858 720.828L141.623 720.183C139.916 718.159 137.68 716.785 134.956 716.048L134.695 717.013ZM140.858 720.828L140.094 721.473C141.541 723.189 142.558 725.303 143.126 727.843L144.102 727.625L145.078 727.406C144.449 724.594 143.303 722.176 141.623 720.183L140.858 720.828ZM144.102 727.625L143.126 727.843C143.695 730.383 143.671 732.712 143.089 734.848L144.054 735.111L145.018 735.374C145.698 732.881 145.707 730.219 145.078 727.406L144.102 727.625ZM144.054 735.111L143.089 734.848C142.516 736.95 141.323 738.783 139.465 740.353L140.111 741.117L140.756 741.881C142.894 740.073 144.329 737.902 145.018 735.374L144.054 735.111ZM140.111 741.117L139.469 740.35C137.628 741.89 135.032 743.068 131.612 743.833L131.831 744.809L132.049 745.785C135.667 744.975 138.591 743.692 140.752 741.884L140.111 741.117ZM131.831 744.809L131.612 743.833L119.192 746.612L119.41 747.588L119.629 748.564L132.049 745.785L131.831 744.809ZM119.41 747.588L120.386 747.369L119.275 742.401L118.299 742.62L117.323 742.838L118.434 747.806L119.41 747.588ZM118.299 742.62L118.517 743.595L130.76 740.857L130.542 739.881L130.323 738.905L118.081 741.644L118.299 742.62ZM130.542 739.881L130.76 740.857C133.267 740.296 135.298 739.458 136.778 738.292L136.159 737.506L135.54 736.721C134.38 737.635 132.666 738.381 130.323 738.905L130.542 739.881ZM136.159 737.506L136.775 738.294C138.259 737.133 139.254 735.706 139.69 734.015L138.722 733.765L137.754 733.516C137.442 734.725 136.728 735.792 135.543 736.719L136.159 737.506ZM138.722 733.765L139.689 734.02C140.124 732.366 140.1 730.557 139.666 728.617L138.69 728.835L137.715 729.054C138.094 730.751 138.092 732.229 137.755 733.511L138.722 733.765ZM138.69 728.835L139.666 728.617C139.232 726.676 138.479 725.013 137.379 723.663L136.603 724.295L135.828 724.927C136.697 725.993 137.335 727.357 137.715 729.054L138.69 728.835ZM136.603 724.295L137.379 723.663C136.243 722.27 134.725 721.355 132.876 720.903L132.639 721.875L132.401 722.846C133.87 723.205 134.995 723.904 135.828 724.927L136.603 724.295ZM132.639 721.875L132.884 720.905C131.016 720.433 128.787 720.524 126.245 721.093L126.464 722.069L126.682 723.044C129.05 722.515 130.938 722.477 132.394 722.844L132.639 721.875ZM126.464 722.069L126.245 721.093L116.575 723.256L116.794 724.232L117.012 725.208L126.682 723.044L126.464 722.069ZM116.794 724.232L115.818 724.45L124.888 764.993L125.864 764.775L126.84 764.557L117.77 724.014L116.794 724.232ZM125.864 764.775L125.645 763.799L120.145 765.03L120.363 766.006L120.582 766.982L126.082 765.751L125.864 764.775ZM137.179 740.818L136.428 741.478L152.171 759.382L152.922 758.722L153.673 758.062L137.93 740.158L137.179 740.818ZM152.922 758.722L152.704 757.746L146.316 759.175L146.535 760.151L146.753 761.127L153.14 759.698L152.922 758.722ZM146.535 760.151L147.29 759.496L131.724 741.552L130.969 742.207L130.214 742.862L145.779 760.806L146.535 760.151ZM130.969 742.207L131.187 743.183L137.397 741.794L137.179 740.818L136.961 739.842L130.751 741.231L130.969 742.207ZM160.313 757.068L159.337 757.287L159.556 758.263L160.532 758.044L160.313 757.068ZM150.152 711.646L149.933 710.67L148.958 710.888L149.176 711.864L150.152 711.646ZM174.645 708.076L174.379 709.04L174.384 709.041L174.645 708.076ZM180.808 711.891L180.044 712.535L180.044 712.535L180.808 711.891ZM184.004 726.174L183.039 725.911L183.039 725.911L184.004 726.174ZM180.061 732.18L180.702 732.947L180.706 732.943L180.061 732.18ZM159.36 738.65L158.384 738.869L158.603 739.845L159.579 739.626L159.36 738.65ZM158.249 733.682L158.031 732.706L157.055 732.925L157.273 733.901L158.249 733.682ZM176.109 728.569L175.493 727.781L175.49 727.784L176.109 728.569ZM178.672 724.828L177.705 724.574L177.704 724.578L178.672 724.828ZM172.589 712.938L172.344 713.907L172.351 713.909L172.589 712.938ZM156.744 715.295L156.525 714.319L155.55 714.537L155.768 715.513L156.744 715.295ZM165.814 755.838L166.032 756.814L167.008 756.596L166.79 755.62L165.814 755.838ZM177.129 731.881L177.88 731.22L177.489 730.775L176.911 730.905L177.129 731.881ZM192.872 749.785L193.09 750.761L194.738 750.392L193.623 749.124L192.872 749.785ZM186.485 751.214L185.729 751.869L186.12 752.32L186.703 752.19L186.485 751.214ZM170.919 733.27L170.701 732.294L169.066 732.66L170.164 733.925L170.919 733.27ZM160.313 757.068L161.289 756.85L151.128 711.427L150.152 711.646L149.176 711.864L159.337 757.287L160.313 757.068ZM150.152 711.646L150.37 712.622L165.718 709.188L165.5 708.212L165.281 707.236L149.933 710.67L150.152 711.646ZM165.5 708.212L165.718 709.188C169.164 708.417 172.037 708.394 174.379 709.04L174.645 708.076L174.911 707.112C172.157 706.352 168.933 706.419 165.281 707.236L165.5 708.212ZM174.645 708.076L174.384 709.041C176.75 709.681 178.623 710.85 180.044 712.535L180.808 711.891L181.573 711.246C179.866 709.222 177.63 707.847 174.906 707.111L174.645 708.076ZM180.808 711.891L180.044 712.535C181.491 714.252 182.508 716.366 183.076 718.906L184.052 718.687L185.028 718.469C184.399 715.656 183.253 713.239 181.573 711.246L180.808 711.891ZM184.052 718.687L183.076 718.906C183.645 721.446 183.621 723.775 183.039 725.911L184.004 726.174L184.968 726.437C185.648 723.944 185.657 721.281 185.028 718.469L184.052 718.687ZM184.004 726.174L183.039 725.911C182.466 728.013 181.273 729.845 179.415 731.416L180.061 732.18L180.706 732.943C182.844 731.136 184.279 728.965 184.968 726.437L184.004 726.174ZM180.061 732.18L179.419 731.413C177.578 732.953 174.982 734.131 171.562 734.896L171.781 735.872L171.999 736.848C175.617 736.038 178.541 734.755 180.702 732.947L180.061 732.18ZM171.781 735.872L171.562 734.896L159.142 737.675L159.36 738.65L159.579 739.626L171.999 736.848L171.781 735.872ZM159.36 738.65L160.336 738.432L159.225 733.464L158.249 733.682L157.273 733.901L158.384 738.869L159.36 738.65ZM158.249 733.682L158.467 734.658L170.71 731.919L170.492 730.943L170.273 729.968L158.031 732.706L158.249 733.682ZM170.492 730.943L170.71 731.919C173.217 731.359 175.248 730.521 176.728 729.354L176.109 728.569L175.49 727.784C174.33 728.698 172.616 729.443 170.273 729.968L170.492 730.943ZM176.109 728.569L176.725 729.357C178.209 728.196 179.204 726.769 179.64 725.078L178.672 724.828L177.704 724.578C177.392 725.788 176.678 726.854 175.493 727.781L176.109 728.569ZM178.672 724.828L179.639 725.082C180.074 723.428 180.05 721.619 179.616 719.68L178.641 719.898L177.665 720.116C178.044 721.814 178.042 723.292 177.705 724.574L178.672 724.828ZM178.641 719.898L179.616 719.68C179.182 717.739 178.429 716.076 177.329 714.726L176.554 715.358L175.778 715.989C176.647 717.056 177.285 718.42 177.665 720.116L178.641 719.898ZM176.554 715.358L177.329 714.726C176.193 713.333 174.675 712.418 172.826 711.966L172.589 712.938L172.351 713.909C173.82 714.268 174.945 714.966 175.778 715.989L176.554 715.358ZM172.589 712.938L172.834 711.968C170.966 711.496 168.737 711.587 166.195 712.155L166.414 713.131L166.632 714.107C169 713.578 170.888 713.539 172.344 713.907L172.589 712.938ZM166.414 713.131L166.195 712.155L156.525 714.319L156.744 715.295L156.962 716.271L166.632 714.107L166.414 713.131ZM156.744 715.295L155.768 715.513L164.838 756.056L165.814 755.838L166.79 755.62L157.72 715.076L156.744 715.295ZM165.814 755.838L165.595 754.862L160.095 756.093L160.313 757.068L160.532 758.044L166.032 756.814L165.814 755.838ZM177.129 731.881L176.378 732.541L192.121 750.445L192.872 749.785L193.623 749.124L177.88 731.22L177.129 731.881ZM192.872 749.785L192.654 748.809L186.266 750.238L186.485 751.214L186.703 752.19L193.09 750.761L192.872 749.785ZM186.485 751.214L187.24 750.558L171.674 732.615L170.919 733.27L170.164 733.925L185.729 751.869L186.485 751.214ZM170.919 733.27L171.137 734.246L177.347 732.857L177.129 731.881L176.911 730.905L170.701 732.294L170.919 733.27ZM233.692 729.847L232.72 729.609L232.72 729.609L233.692 729.847ZM228.378 739.513L229.082 740.223L229.082 740.223L228.378 739.513ZM207.707 744.137L207.373 745.08L207.373 745.08L207.707 744.137ZM198.782 737.657L199.559 737.027L199.559 737.027L198.782 737.657ZM193.225 712.816L192.253 712.578L193.225 712.816ZM219.209 698.526L219.543 697.583L219.543 697.583L219.209 698.526ZM228.134 705.006L227.357 705.635L227.357 705.635L228.134 705.006ZM223.983 708.52L223.198 709.14L223.201 709.143L223.983 708.52ZM217.308 703.562L216.975 704.505L216.978 704.506L217.308 703.562ZM202.382 706.902L201.68 706.188L201.678 706.191L202.382 706.902ZM198.455 714.231L197.482 714L197.481 714.005L198.455 714.231ZM202.911 734.148L202.126 734.767L202.129 734.771L202.911 734.148ZM209.586 739.106L209.253 740.048L209.256 740.049L209.586 739.106ZM224.512 735.766L223.811 735.053L223.809 735.055L224.512 735.766ZM228.439 728.437L227.466 728.206L227.465 728.211L228.439 728.437ZM233.508 716.846L232.532 717.064C233.578 721.739 233.625 725.913 232.72 729.609L233.692 729.847L234.663 730.085C235.656 726.028 235.582 721.535 234.484 716.628L233.508 716.846ZM233.692 729.847L232.72 729.609C231.811 733.324 230.124 736.377 227.675 738.802L228.378 739.513L229.082 740.223C231.818 737.514 233.674 734.123 234.663 730.085L233.692 729.847ZM228.378 739.513L227.675 738.802C225.227 741.226 222.167 742.859 218.459 743.688L218.678 744.664L218.896 745.64C222.937 744.736 226.343 742.935 229.082 740.223L228.378 739.513ZM218.678 744.664L218.459 743.688C214.752 744.517 211.288 744.344 208.041 743.194L207.707 744.137L207.373 745.08C211.006 746.366 214.855 746.544 218.896 745.64L218.678 744.664ZM207.707 744.137L208.041 743.194C204.791 742.044 201.965 740 199.559 737.027L198.782 737.657L198.004 738.286C200.62 741.518 203.744 743.795 207.373 745.08L207.707 744.137ZM198.782 737.657L199.559 737.027C197.165 734.069 195.43 730.273 194.384 725.598L193.408 725.817L192.432 726.035C193.53 730.942 195.377 735.039 198.004 738.286L198.782 737.657ZM193.408 725.817L194.384 725.598C193.338 720.924 193.291 716.75 194.196 713.054L193.225 712.816L192.253 712.578C191.26 716.635 191.335 721.128 192.432 726.035L193.408 725.817ZM193.225 712.816L194.196 713.054C195.106 709.339 196.792 706.286 199.242 703.861L198.538 703.15L197.834 702.44C195.098 705.149 193.242 708.54 192.253 712.578L193.225 712.816ZM198.538 703.15L199.242 703.861C201.689 701.437 204.749 699.804 208.457 698.975L208.238 697.999L208.02 697.023C203.979 697.927 200.573 699.728 197.834 702.44L198.538 703.15ZM208.238 697.999L208.457 698.975C212.164 698.146 215.628 698.319 218.875 699.469L219.209 698.526L219.543 697.583C215.91 696.297 212.061 696.119 208.02 697.023L208.238 697.999ZM219.209 698.526L218.875 699.469C222.125 700.619 224.951 702.662 227.357 705.635L228.134 705.006L228.912 704.377C226.296 701.145 223.173 698.868 219.543 697.583L219.209 698.526ZM228.134 705.006L227.357 705.635C229.751 708.594 231.486 712.39 232.532 717.064L233.508 716.846L234.484 716.628C233.386 711.721 231.539 707.624 228.912 704.377L228.134 705.006ZM228.185 718.037L229.161 717.819C228.258 713.781 226.805 710.458 224.765 707.897L223.983 708.52L223.201 709.143C225.004 711.406 226.353 714.426 227.209 718.255L228.185 718.037ZM223.983 708.52L224.768 707.9C222.761 705.358 220.386 703.58 217.638 702.618L217.308 703.562L216.978 704.506C219.318 705.325 221.392 706.852 223.198 709.14L223.983 708.52ZM217.308 703.562L217.641 702.619C214.926 701.66 212.095 701.515 209.171 702.169L209.389 703.145L209.608 704.12C212.184 703.544 214.632 703.677 216.975 704.505L217.308 703.562ZM209.389 703.145L209.171 702.169C206.247 702.823 203.742 704.162 201.68 706.188L202.382 706.902L203.083 707.615C204.865 705.862 207.031 704.697 209.608 704.12L209.389 703.145ZM202.382 706.902L201.678 706.191C199.619 708.227 198.229 710.846 197.482 714L198.455 714.231L199.428 714.461C200.102 711.616 201.33 709.348 203.085 707.613L202.382 706.902ZM198.455 714.231L197.481 714.005C196.742 717.186 196.852 720.808 197.755 724.844L198.731 724.626L199.707 724.408C198.85 720.577 198.776 717.27 199.429 714.457L198.455 714.231ZM198.731 724.626L197.755 724.844C198.658 728.88 200.102 732.204 202.126 734.767L202.911 734.148L203.696 733.528C201.906 731.262 200.564 728.238 199.707 724.408L198.731 724.626ZM202.911 734.148L202.129 734.771C204.149 737.306 206.522 739.083 209.253 740.048L209.586 739.106L209.919 738.163C207.592 737.34 205.515 735.812 203.693 733.525L202.911 734.148ZM209.586 739.106L209.256 740.049C211.984 741.004 214.821 741.148 217.745 740.494L217.527 739.518L217.308 738.542C214.732 739.119 212.275 738.987 209.916 738.162L209.586 739.106ZM217.527 739.518L217.745 740.494C220.669 739.84 223.168 738.502 225.216 736.477L224.512 735.766L223.809 735.055C222.043 736.802 219.885 737.966 217.308 738.542L217.527 739.518ZM224.512 735.766L225.213 736.479C227.289 734.439 228.68 731.818 229.413 728.663L228.439 728.437L227.465 728.211C226.806 731.05 225.579 733.315 223.811 735.053L224.512 735.766ZM228.439 728.437L229.412 728.667C230.166 725.482 230.064 721.856 229.161 717.819L228.185 718.037L227.209 718.255C228.066 722.084 228.132 725.392 227.466 728.206L228.439 728.437ZM247.837 737.488L246.861 737.707L247.08 738.683L248.056 738.464L247.837 737.488ZM237.676 692.066L237.458 691.09L236.482 691.308L236.7 692.284L237.676 692.066ZM262.169 688.496L261.903 689.46L261.908 689.461L262.169 688.496ZM268.332 692.311L267.568 692.955L267.568 692.955L268.332 692.311ZM271.528 706.594L270.563 706.331L270.563 706.331L271.528 706.594ZM267.585 712.6L268.226 713.367L268.23 713.363L267.585 712.6ZM246.884 719.07L245.909 719.289L246.127 720.265L247.103 720.046L246.884 719.07ZM245.773 714.102L245.555 713.126L244.579 713.345L244.797 714.321L245.773 714.102ZM263.633 708.989L263.017 708.201L263.014 708.204L263.633 708.989ZM266.196 705.248L265.229 704.994L265.228 704.998L266.196 705.248ZM260.113 693.358L259.868 694.327L259.875 694.329L260.113 693.358ZM244.268 695.715L244.05 694.739L243.074 694.957L243.292 695.933L244.268 695.715ZM253.338 736.258L253.556 737.234L254.532 737.015L254.314 736.04L253.338 736.258ZM264.653 712.301L265.404 711.64L265.013 711.195L264.435 711.325L264.653 712.301ZM280.396 730.205L280.615 731.181L282.262 730.812L281.147 729.544L280.396 730.205ZM274.009 731.634L273.253 732.289L273.644 732.74L274.227 732.61L274.009 731.634ZM258.443 713.69L258.225 712.714L256.59 713.08L257.688 714.345L258.443 713.69ZM247.837 737.488L248.813 737.27L238.652 691.847L237.676 692.066L236.7 692.284L246.861 737.707L247.837 737.488ZM237.676 692.066L237.894 693.042L253.242 689.608L253.024 688.632L252.805 687.656L237.458 691.09L237.676 692.066ZM253.024 688.632L253.242 689.608C256.688 688.837 259.561 688.814 261.903 689.46L262.169 688.496L262.435 687.532C259.681 686.772 256.457 686.839 252.805 687.656L253.024 688.632ZM262.169 688.496L261.908 689.461C264.274 690.101 266.147 691.27 267.568 692.955L268.332 692.311L269.097 691.666C267.39 689.642 265.154 688.267 262.43 687.531L262.169 688.496ZM268.332 692.311L267.568 692.955C269.015 694.672 270.032 696.786 270.6 699.326L271.576 699.107L272.552 698.889C271.923 696.076 270.777 693.659 269.097 691.666L268.332 692.311ZM271.576 699.107L270.6 699.326C271.169 701.866 271.145 704.194 270.563 706.331L271.528 706.594L272.493 706.857C273.172 704.364 273.181 701.701 272.552 698.889L271.576 699.107ZM271.528 706.594L270.563 706.331C269.99 708.433 268.797 710.265 266.939 711.836L267.585 712.6L268.23 713.363C270.368 711.556 271.803 709.385 272.493 706.857L271.528 706.594ZM267.585 712.6L266.943 711.833C265.102 713.373 262.506 714.551 259.086 715.316L259.305 716.292L259.523 717.268C263.141 716.458 266.065 715.175 268.226 713.367L267.585 712.6ZM259.305 716.292L259.086 715.316L246.666 718.094L246.884 719.07L247.103 720.046L259.523 717.268L259.305 716.292ZM246.884 719.07L247.86 718.852L246.749 713.884L245.773 714.102L244.797 714.321L245.909 719.289L246.884 719.07ZM245.773 714.102L245.991 715.078L258.234 712.339L258.016 711.363L257.797 710.388L245.555 713.126L245.773 714.102ZM258.016 711.363L258.234 712.339C260.741 711.778 262.772 710.941 264.252 709.774L263.633 708.989L263.014 708.204C261.854 709.118 260.14 709.863 257.797 710.388L258.016 711.363ZM263.633 708.989L264.249 709.777C265.733 708.616 266.728 707.189 267.165 705.498L266.196 705.248L265.228 704.998C264.916 706.207 264.202 707.274 263.017 708.201L263.633 708.989ZM266.196 705.248L267.163 705.502C267.598 703.848 267.574 702.039 267.141 700.1L266.165 700.318L265.189 700.536C265.569 702.234 265.566 703.712 265.229 704.994L266.196 705.248ZM266.165 700.318L267.141 700.1C266.706 698.159 265.953 696.496 264.853 695.146L264.078 695.778L263.302 696.409C264.171 697.476 264.809 698.84 265.189 700.536L266.165 700.318ZM264.078 695.778L264.853 695.146C263.718 693.753 262.199 692.838 260.35 692.386L260.113 693.358L259.875 694.329C261.344 694.688 262.469 695.386 263.302 696.409L264.078 695.778ZM260.113 693.358L260.358 692.388C258.49 691.916 256.261 692.007 253.72 692.575L253.938 693.551L254.156 694.527C256.524 693.998 258.412 693.959 259.868 694.327L260.113 693.358ZM253.938 693.551L253.72 692.575L244.05 694.739L244.268 695.715L244.486 696.69L254.156 694.527L253.938 693.551ZM244.268 695.715L243.292 695.933L252.362 736.476L253.338 736.258L254.314 736.04L245.244 695.496L244.268 695.715ZM253.338 736.258L253.119 735.282L247.619 736.513L247.837 737.488L248.056 738.464L253.556 737.234L253.338 736.258ZM264.653 712.301L263.902 712.961L279.645 730.865L280.396 730.205L281.147 729.544L265.404 711.64L264.653 712.301ZM280.396 730.205L280.178 729.229L273.79 730.658L274.009 731.634L274.227 732.61L280.615 731.181L280.396 730.205ZM274.009 731.634L274.764 730.978L259.198 713.035L258.443 713.69L257.688 714.345L273.253 732.289L274.009 731.634ZM258.443 713.69L258.661 714.666L264.872 713.276L264.653 712.301L264.435 711.325L258.225 712.714L258.443 713.69ZM301.406 715.723L300.43 715.941L300.649 716.917L301.625 716.699L301.406 715.723ZM300.394 711.199L299.453 710.862L299.355 711.134L299.418 711.417L300.394 711.199ZM313.29 675.15L313.071 674.174L312.534 674.294L312.348 674.813L313.29 675.15ZM316.572 674.416L317.548 674.197L317.33 673.222L316.354 673.44L316.572 674.416ZM318.14 681.424L318.359 682.4L319.334 682.182L319.116 681.206L318.14 681.424ZM315.922 681.921L315.704 680.945L315.166 681.065L314.981 681.584L315.922 681.921ZM306.179 709.159L305.238 708.822L305.14 709.095L305.203 709.377L306.179 709.159ZM306.259 709.514L305.283 709.732L305.501 710.708L306.477 710.49L306.259 709.514ZM333.14 703.5L334.116 703.282L333.897 702.306L332.921 702.525L333.14 703.5ZM334.231 708.38L334.45 709.356L335.425 709.137L335.207 708.161L334.231 708.38ZM324.871 720.255L323.895 720.474L324.113 721.449L325.089 721.231L324.871 720.255ZM314.709 674.833L314.491 673.857L313.515 674.075L313.733 675.051L314.709 674.833ZM319.944 673.662L320.919 673.443L320.701 672.467L319.725 672.686L319.944 673.662ZM330.105 719.084L330.323 720.06L331.299 719.842L331.081 718.866L330.105 719.084ZM301.406 715.723L302.382 715.505L301.37 710.98L300.394 711.199L299.418 711.417L300.43 715.941L301.406 715.723ZM300.394 711.199L301.336 711.535L314.231 675.487L313.29 675.15L312.348 674.813L299.453 710.862L300.394 711.199ZM313.29 675.15L313.508 676.126L316.791 675.392L316.572 674.416L316.354 673.44L313.071 674.174L313.29 675.15ZM316.572 674.416L315.596 674.634L317.164 681.643L318.14 681.424L319.116 681.206L317.548 674.197L316.572 674.416ZM318.14 681.424L317.922 680.448L315.704 680.945L315.922 681.921L316.141 682.896L318.359 682.4L318.14 681.424ZM315.922 681.921L314.981 681.584L305.238 708.822L306.179 709.159L307.121 709.496L316.864 682.257L315.922 681.921ZM306.179 709.159L305.203 709.377L305.283 709.732L306.259 709.514L307.235 709.296L307.155 708.941L306.179 709.159ZM306.259 709.514L306.477 710.49L333.358 704.476L333.14 703.5L332.921 702.525L306.04 708.538L306.259 709.514ZM333.14 703.5L332.164 703.719L333.255 708.598L334.231 708.38L335.207 708.161L334.116 703.282L333.14 703.5ZM334.231 708.38L334.013 707.404L301.188 714.747L301.406 715.723L301.625 716.699L334.45 709.356L334.231 708.38ZM324.871 720.255L325.847 720.037L323.455 709.347L322.479 709.565L321.503 709.783L323.895 720.474L324.871 720.255ZM322.479 709.565L323.455 709.347L322.984 707.24L322.008 707.458L321.032 707.676L321.503 709.783L322.479 709.565ZM322.008 707.458L322.984 707.24L315.685 674.614L314.709 674.833L313.733 675.051L321.032 707.676L322.008 707.458ZM314.709 674.833L314.928 675.808L320.162 674.637L319.944 673.662L319.725 672.686L314.491 673.857L314.709 674.833ZM319.944 673.662L318.968 673.88L329.129 719.303L330.105 719.084L331.081 718.866L320.919 673.443L319.944 673.662ZM330.105 719.084L329.887 718.108L324.652 719.279L324.871 720.255L325.089 721.231L330.323 720.06L330.105 719.084ZM350.432 712.324L350.004 713.228L350.008 713.23L350.432 712.324ZM343.261 705.568L342.415 706.101L342.416 706.102L343.261 705.568ZM337.62 680.35L336.628 680.225L336.627 680.227L337.62 680.35ZM341.245 671.155L342.018 671.79L342.018 671.79L341.245 671.155ZM358.257 667.35L357.825 668.252L357.831 668.255L358.257 667.35ZM365.455 674.123L364.608 674.656L364.611 674.661L365.455 674.123ZM371.118 699.336L372.111 699.459L372.111 699.458L371.118 699.336ZM367.51 708.504L368.28 709.142L368.282 709.139L367.51 708.504ZM365.136 701.746L364.181 701.449L364.181 701.449L365.136 701.746ZM361.318 677.704L360.446 678.193L360.448 678.197L361.318 677.704ZM356.311 672.186L355.805 673.049L355.809 673.051L356.311 672.186ZM343.604 677.847L344.559 678.143L344.56 678.141L343.604 677.847ZM347.378 701.899L346.506 702.389L346.506 702.389L347.378 701.899ZM352.353 707.377L351.851 708.242L351.855 708.244L352.353 707.377ZM359.581 713.142L359.363 712.166C356.209 712.872 353.389 712.606 350.857 711.419L350.432 712.324L350.008 713.23C352.991 714.628 356.27 714.908 359.8 714.118L359.581 713.142ZM350.432 712.324L350.86 711.421C348.307 710.212 346.049 708.108 344.107 705.034L343.261 705.568L342.416 706.102C344.512 709.421 347.035 711.822 350.004 713.228L350.432 712.324ZM343.261 705.568L344.108 705.035C342.162 701.946 340.634 697.986 339.546 693.124L338.57 693.343L337.594 693.561C338.716 698.576 340.315 702.766 342.415 706.101L343.261 705.568ZM338.57 693.343L339.546 693.124C338.465 688.293 338.166 684.081 338.612 680.473L337.62 680.35L336.627 680.227C336.145 684.124 336.479 688.575 337.594 693.561L338.57 693.343ZM337.62 680.35L338.612 680.476C339.07 676.847 340.223 673.972 342.018 671.79L341.245 671.155L340.473 670.52C338.386 673.057 337.122 676.313 336.628 680.225L337.62 680.35ZM341.245 671.155L342.018 671.79C343.814 669.603 346.242 668.151 349.36 667.453L349.142 666.477L348.924 665.502C345.418 666.286 342.581 667.953 340.473 670.521L341.245 671.155ZM349.142 666.477L349.36 667.453C352.479 666.756 355.285 667.037 357.825 668.252L358.257 667.35L358.688 666.447C355.7 665.018 352.43 664.717 348.924 665.502L349.142 666.477ZM358.257 667.35L357.831 668.255C360.397 669.46 362.663 671.568 364.608 674.656L365.455 674.123L366.301 673.59C364.2 670.256 361.668 667.847 358.682 666.444L358.257 667.35ZM365.455 674.123L364.611 674.661C366.566 677.73 368.097 681.665 369.177 686.495L370.153 686.277L371.129 686.059C370.013 681.072 368.411 676.904 366.298 673.586L365.455 674.123ZM370.153 686.277L369.177 686.495C370.265 691.357 370.569 695.591 370.126 699.214L371.118 699.336L372.111 699.458C372.59 695.546 372.251 691.074 371.129 686.059L370.153 686.277ZM371.118 699.336L370.126 699.213C369.679 702.822 368.532 705.687 366.738 707.869L367.51 708.504L368.282 709.139C370.369 706.602 371.628 703.355 372.111 699.459L371.118 699.336ZM367.51 708.504L366.74 707.866C364.955 710.019 362.517 711.461 359.363 712.166L359.581 713.142L359.8 714.118C363.329 713.329 366.177 711.678 368.28 709.142L367.51 708.504ZM358.49 708.263L358.708 709.239C362.415 708.41 364.881 705.942 366.091 702.042L365.136 701.746L364.181 701.449C363.154 704.757 361.189 706.634 358.271 707.287L358.49 708.263ZM365.136 701.746L366.091 702.042C367.285 698.199 367.146 693.242 365.806 687.25L364.83 687.468L363.854 687.686C365.16 693.523 365.226 698.084 364.181 701.449L365.136 701.746ZM364.83 687.468L365.806 687.25C364.912 683.252 363.712 679.897 362.188 677.21L361.318 677.704L360.448 678.197C361.847 680.663 362.989 683.817 363.854 687.686L364.83 687.468ZM361.318 677.704L362.191 677.215C360.686 674.532 358.905 672.536 356.813 671.322L356.311 672.186L355.809 673.051C357.501 674.033 359.057 675.716 360.446 678.193L361.318 677.704ZM356.311 672.186L356.817 671.324C354.715 670.09 352.423 669.749 349.995 670.292L350.214 671.268L350.432 672.244C352.381 671.808 354.154 672.08 355.805 673.049L356.311 672.186ZM350.214 671.268L349.995 670.292C346.309 671.117 343.861 673.614 342.648 677.553L343.604 677.847L344.56 678.141C345.595 674.777 347.554 672.888 350.432 672.244L350.214 671.268ZM343.604 677.847L342.649 677.551C341.448 681.425 341.58 686.391 342.917 692.37L343.893 692.152L344.869 691.933C343.567 686.114 343.506 681.543 344.559 678.143L343.604 677.847ZM343.893 692.152L342.917 692.37C343.811 696.366 345.001 699.714 346.506 702.389L347.378 701.899L348.249 701.408C346.868 698.953 345.735 695.804 344.869 691.933L343.893 692.152ZM347.378 701.899L346.506 702.389C348.007 705.056 349.777 707.039 351.851 708.242L352.353 707.377L352.855 706.512C351.182 705.541 349.635 703.872 348.249 701.408L347.378 701.899ZM352.353 707.377L351.855 708.244C353.969 709.457 356.271 709.784 358.708 709.239L358.49 708.263L358.271 707.287C356.302 707.727 354.513 707.464 352.851 706.509L352.353 707.377ZM389.469 658.108L390.445 657.89L390.227 656.914L389.251 657.132L389.469 658.108ZM399.631 703.531L399.849 704.507L400.825 704.288L400.607 703.312L399.631 703.531ZM394.13 704.761L393.155 704.979L393.373 705.955L394.349 705.737L394.13 704.761ZM385.259 665.105L386.235 664.887L386.017 663.911L385.041 664.129L385.259 665.105ZM384.993 665.165L384.774 664.189L384.48 664.255L384.271 664.472L384.993 665.165ZM375.551 675.009L374.575 675.227L374.982 677.047L376.272 675.701L375.551 675.009ZM374.3 669.42L373.578 668.728L373.207 669.115L373.324 669.638L374.3 669.42ZM383.969 659.338L383.751 658.363L383.456 658.428L383.247 658.646L383.969 659.338ZM389.469 658.108L388.493 658.326L398.655 703.749L399.631 703.531L400.607 703.312L390.445 657.89L389.469 658.108ZM399.631 703.531L399.413 702.555L393.912 703.785L394.13 704.761L394.349 705.737L399.849 704.507L399.631 703.531ZM394.13 704.761L395.106 704.543L386.235 664.887L385.259 665.105L384.283 665.323L393.155 704.979L394.13 704.761ZM385.259 665.105L385.041 664.129L384.774 664.189L384.993 665.165L385.211 666.14L385.477 666.081L385.259 665.105ZM384.993 665.165L384.271 664.472L374.829 674.317L375.551 675.009L376.272 675.701L385.715 665.857L384.993 665.165ZM375.551 675.009L376.526 674.791L375.276 669.201L374.3 669.42L373.324 669.638L374.575 675.227L375.551 675.009ZM374.3 669.42L375.022 670.112L384.691 660.031L383.969 659.338L383.247 658.646L373.578 668.728L374.3 669.42ZM383.969 659.338L384.187 660.314L389.688 659.084L389.469 658.108L389.251 657.132L383.751 658.363L383.969 659.338Z" fill="black" mask="url(#path-2-outside-1_63_5)"/>
</g>
<g id="CLOUD">
<mask id="path-4-outside-2_63_5" maskUnits="userSpaceOnUse" x="899.462" y="162.751" width="223.372" height="75.5192" fill="black">
<rect fill="white" x="899.462" y="162.751" width="223.372" height="75.5192"/>
<path d="M942.217 199.828L936.617 200.467C936.101 198.894 935.36 197.546 934.393 196.421C933.441 195.294 932.33 194.384 931.062 193.69C929.806 192.98 928.447 192.494 926.984 192.234C925.521 191.974 924.021 191.932 922.486 192.108C919.686 192.427 917.23 193.425 915.119 195.099C913.022 196.772 911.461 199.062 910.436 201.97C909.426 204.876 909.15 208.332 909.607 212.336C910.064 216.34 911.113 219.644 912.752 222.248C914.406 224.849 916.443 226.729 918.863 227.886C921.298 229.041 923.915 229.459 926.715 229.14C928.25 228.964 929.702 228.585 931.069 228.002C932.435 227.419 933.651 226.647 934.716 225.687C935.794 224.71 936.669 223.565 937.343 222.253C938.03 220.924 938.448 219.443 938.597 217.809L944.197 217.17C944.045 219.581 943.519 221.784 942.618 223.778C941.718 225.772 940.514 227.518 939.008 229.017C937.5 230.5 935.753 231.699 933.768 232.612C931.798 233.523 929.647 234.112 927.313 234.378C923.369 234.829 919.752 234.266 916.461 232.69C913.17 231.113 910.441 228.65 908.274 225.298C906.107 221.947 904.745 217.832 904.188 212.955C903.631 208.077 904.03 203.762 905.385 200.008C906.741 196.254 908.844 193.238 911.695 190.961C914.546 188.683 917.944 187.319 921.888 186.869C924.221 186.602 926.45 186.691 928.575 187.135C930.714 187.576 932.687 188.358 934.492 189.478C936.296 190.584 937.862 192.006 939.189 193.746C940.514 195.47 941.523 197.497 942.217 199.828ZM954.897 230.588L949.615 184.343L955.215 183.703L959.929 224.98L981.426 222.526L981.993 227.493L954.897 230.588ZM1025.24 199.13C1025.8 204.008 1025.4 208.323 1024.04 212.077C1022.69 215.831 1020.59 218.847 1017.73 221.124C1014.88 223.402 1011.49 224.766 1007.54 225.216C1003.6 225.666 999.98 225.104 996.689 223.527C993.398 221.951 990.669 219.487 988.502 216.136C986.335 212.784 984.973 208.67 984.416 203.793C983.859 198.915 984.258 194.6 985.614 190.846C986.97 187.092 989.073 184.076 991.924 181.799C994.775 179.521 998.172 178.157 1002.12 177.707C1006.06 177.256 1009.68 177.819 1012.97 179.395C1016.26 180.971 1018.99 183.435 1021.16 186.787C1023.32 190.138 1024.68 194.253 1025.24 199.13ZM1019.82 199.749C1019.37 195.745 1018.31 192.442 1016.65 189.84C1015.02 187.236 1012.98 185.357 1010.54 184.201C1008.12 183.044 1005.51 182.626 1002.71 182.945C999.914 183.265 997.459 184.262 995.347 185.937C993.251 187.61 991.69 189.9 990.665 192.808C989.655 195.714 989.378 199.169 989.836 203.174C990.293 207.178 991.341 210.482 992.98 213.085C994.635 215.687 996.672 217.567 999.091 218.724C1001.53 219.879 1004.14 220.297 1006.94 219.977C1009.74 219.658 1012.19 218.661 1014.29 216.988C1016.4 215.314 1017.96 213.023 1018.97 210.117C1020 207.209 1020.28 203.753 1019.82 199.749ZM1062.37 171.467L1067.97 170.827L1071.46 201.446C1071.82 204.608 1071.4 207.515 1070.19 210.169C1069 212.807 1067.14 214.994 1064.61 216.732C1062.07 218.455 1058.99 219.523 1055.37 219.938C1051.74 220.352 1048.5 220.005 1045.64 218.898C1042.78 217.776 1040.47 216.065 1038.69 213.767C1036.93 211.451 1035.87 208.713 1035.51 205.552L1032.02 174.932L1037.62 174.293L1041.06 204.46C1041.32 206.719 1042.05 208.671 1043.24 210.319C1044.43 211.952 1046.01 213.168 1047.96 213.967C1049.92 214.749 1052.19 214.993 1054.77 214.699C1057.34 214.405 1059.5 213.655 1061.24 212.45C1062.97 211.23 1064.23 209.691 1065.01 207.833C1065.8 205.959 1066.07 203.892 1065.81 201.634L1062.37 171.467ZM1098.7 214.165L1084.43 215.795L1079.15 169.55L1094.05 167.848C1098.54 167.336 1102.48 167.823 1105.88 169.31C1109.29 170.782 1112.03 173.145 1114.13 176.398C1116.22 179.636 1117.54 183.649 1118.09 188.436C1118.64 193.253 1118.25 197.498 1116.93 201.171C1115.61 204.83 1113.42 207.78 1110.35 210.021C1107.28 212.247 1103.4 213.629 1098.7 214.165ZM1089.46 210.188L1097.77 209.239C1101.6 208.802 1104.68 207.703 1107.03 205.94C1109.37 204.178 1111.01 201.864 1111.93 198.998C1112.85 196.132 1113.1 192.818 1112.67 189.054C1112.24 185.321 1111.27 182.177 1109.74 179.621C1108.21 177.051 1106.15 175.182 1103.56 174.013C1100.97 172.83 1097.87 172.444 1094.26 172.857L1085.32 173.878L1089.46 210.188Z"/>
</mask>
<path d="M942.217 199.828L942.33 200.821L943.515 200.686L943.175 199.543L942.217 199.828ZM936.617 200.467L935.666 200.779L935.92 201.553L936.73 201.461L936.617 200.467ZM934.393 196.421L933.629 197.066L933.635 197.073L934.393 196.421ZM931.062 193.69L930.569 194.56L930.576 194.564L930.582 194.568L931.062 193.69ZM926.984 192.234L926.809 193.219L926.809 193.219L926.984 192.234ZM915.119 195.099L914.497 194.316L914.495 194.318L915.119 195.099ZM910.436 201.97L909.493 201.638L909.492 201.642L910.436 201.97ZM912.752 222.248L911.906 222.78L911.908 222.784L912.752 222.248ZM918.863 227.886L918.432 228.788L918.434 228.789L918.863 227.886ZM931.069 228.002L930.676 227.082L930.676 227.082L931.069 228.002ZM934.716 225.687L935.386 226.429L935.387 226.428L934.716 225.687ZM937.343 222.253L936.455 221.794L936.454 221.796L937.343 222.253ZM938.597 217.809L938.484 216.816L937.675 216.908L937.601 217.718L938.597 217.809ZM944.197 217.17L945.195 217.232L945.27 216.041L944.084 216.176L944.197 217.17ZM942.618 223.778L941.707 223.366L941.707 223.366L942.618 223.778ZM939.008 229.017L939.709 229.73L939.713 229.726L939.008 229.017ZM933.768 232.612L933.35 231.703L933.348 231.704L933.768 232.612ZM916.461 232.69L916.029 233.592L916.029 233.592L916.461 232.69ZM908.274 225.298L909.113 224.755L909.113 224.755L908.274 225.298ZM905.385 200.008L904.445 199.668L905.385 200.008ZM928.575 187.135L928.37 188.113L928.372 188.114L928.575 187.135ZM934.492 189.478L933.965 190.328L933.97 190.331L934.492 189.478ZM939.189 193.746L938.394 194.352L938.396 194.355L939.189 193.746ZM942.217 199.828L942.103 198.834L936.503 199.474L936.617 200.467L936.73 201.461L942.33 200.821L942.217 199.828ZM936.617 200.467L937.567 200.156C937.016 198.473 936.214 197.004 935.151 195.769L934.393 196.421L933.635 197.073C934.507 198.087 935.187 199.316 935.666 200.779L936.617 200.467ZM934.393 196.421L935.157 195.775C934.127 194.557 932.921 193.567 931.542 192.813L931.062 193.69L930.582 194.568C931.74 195.201 932.755 196.032 933.629 197.066L934.393 196.421ZM931.062 193.69L931.554 192.82C930.197 192.052 928.73 191.529 927.159 191.25L926.984 192.234L926.809 193.219C928.164 193.46 929.415 193.907 930.569 194.56L931.062 193.69ZM926.984 192.234L927.159 191.25C925.597 190.972 924 190.928 922.372 191.114L922.486 192.108L922.599 193.101C924.043 192.936 925.445 192.977 926.809 193.219L926.984 192.234ZM922.486 192.108L922.372 191.114C919.396 191.454 916.762 192.519 914.497 194.316L915.119 195.099L915.74 195.883C917.698 194.33 919.976 193.401 922.599 193.101L922.486 192.108ZM915.119 195.099L914.495 194.318C912.231 196.124 910.571 198.58 909.493 201.638L910.436 201.97L911.379 202.303C912.352 199.545 913.813 197.42 915.742 195.881L915.119 195.099ZM910.436 201.97L909.492 201.642C908.419 204.727 908.144 208.34 908.613 212.449L909.607 212.336L910.601 212.222C910.155 208.323 910.433 205.026 911.381 202.299L910.436 201.97ZM909.607 212.336L908.613 212.449C909.083 216.558 910.166 220.017 911.906 222.78L912.752 222.248L913.598 221.715C912.06 219.271 911.046 216.122 910.601 212.222L909.607 212.336ZM912.752 222.248L911.908 222.784C913.648 225.52 915.819 227.539 918.432 228.788L918.863 227.886L919.294 226.984C917.068 225.919 915.165 224.179 913.596 221.711L912.752 222.248ZM918.863 227.886L918.434 228.789C921.046 230.029 923.852 230.473 926.828 230.133L926.715 229.14L926.602 228.146C923.978 228.446 921.55 228.054 919.292 226.983L918.863 227.886ZM926.715 229.14L926.828 230.133C928.456 229.947 930.002 229.544 931.461 228.922L931.069 228.002L930.676 227.082C929.402 227.626 928.045 227.981 926.602 228.146L926.715 229.14ZM931.069 228.002L931.461 228.922C932.926 228.297 934.236 227.466 935.386 226.429L934.716 225.687L934.046 224.944C933.066 225.828 931.945 226.541 930.676 227.082L931.069 228.002ZM934.716 225.687L935.387 226.428C936.556 225.369 937.505 224.127 938.233 222.71L937.343 222.253L936.454 221.796C935.834 223.003 935.032 224.051 934.044 224.946L934.716 225.687ZM937.343 222.253L938.231 222.712C938.983 221.258 939.433 219.65 939.593 217.9L938.597 217.809L937.601 217.718C937.463 219.236 937.077 220.59 936.455 221.794L937.343 222.253ZM938.597 217.809L938.71 218.803L944.31 218.163L944.197 217.17L944.084 216.176L938.484 216.816L938.597 217.809ZM944.197 217.17L943.199 217.107C943.054 219.41 942.553 221.493 941.707 223.366L942.618 223.778L943.53 224.189C944.485 222.075 945.037 219.752 945.195 217.232L944.197 217.17ZM942.618 223.778L941.707 223.366C940.855 225.253 939.72 226.897 938.302 228.308L939.008 229.017L939.713 229.726C941.308 228.139 942.58 226.291 943.53 224.189L942.618 223.778ZM939.008 229.017L938.306 228.304C936.883 229.704 935.234 230.837 933.35 231.703L933.768 232.612L934.186 233.52C936.273 232.561 938.116 231.297 939.709 229.73L939.008 229.017ZM933.768 232.612L933.348 231.704C931.483 232.567 929.436 233.129 927.2 233.385L927.313 234.378L927.427 235.372C929.857 235.094 932.114 234.479 934.188 233.519L933.768 232.612ZM927.313 234.378L927.2 233.385C923.425 233.816 919.999 233.276 916.893 231.788L916.461 232.69L916.029 233.592C919.504 235.256 923.313 235.842 927.427 235.372L927.313 234.378ZM916.461 232.69L916.893 231.788C913.783 230.299 911.19 227.967 909.113 224.755L908.274 225.298L907.434 225.841C909.691 229.333 912.556 231.928 916.029 233.592L916.461 232.69ZM908.274 225.298L909.113 224.755C907.047 221.559 905.725 217.6 905.181 212.841L904.188 212.955L903.194 213.068C903.765 218.064 905.166 222.334 907.434 225.841L908.274 225.298ZM904.188 212.955L905.181 212.841C904.638 208.082 905.033 203.927 906.326 200.348L905.385 200.008L904.445 199.668C903.026 203.597 902.624 208.072 903.194 213.068L904.188 212.955ZM905.385 200.008L906.326 200.348C907.625 196.751 909.626 193.894 912.319 191.742L911.695 190.961L911.071 190.18C908.063 192.583 905.857 195.758 904.445 199.668L905.385 200.008ZM911.695 190.961L912.319 191.742C915.011 189.592 918.227 188.293 922.001 187.862L921.888 186.869L921.774 185.875C917.66 186.345 914.082 187.774 911.071 190.18L911.695 190.961ZM921.888 186.869L922.001 187.862C924.237 187.607 926.358 187.693 928.37 188.113L928.575 187.135L928.779 186.156C926.542 185.689 924.205 185.598 921.774 185.875L921.888 186.869ZM928.575 187.135L928.372 188.114C930.4 188.533 932.262 189.271 933.965 190.328L934.492 189.478L935.02 188.629C933.112 187.444 931.028 186.62 928.777 186.155L928.575 187.135ZM934.492 189.478L933.97 190.331C935.665 191.37 937.139 192.708 938.394 194.352L939.189 193.746L939.984 193.139C938.584 191.305 936.928 189.798 935.015 188.626L934.492 189.478ZM939.189 193.746L938.396 194.355C939.638 195.972 940.596 197.886 941.258 200.113L942.217 199.828L943.175 199.543C942.451 197.109 941.39 194.968 939.982 193.136L939.189 193.746ZM954.897 230.588L953.903 230.701L954.016 231.695L955.01 231.581L954.897 230.588ZM949.615 184.343L949.502 183.349L948.508 183.463L948.622 184.456L949.615 184.343ZM955.215 183.703L956.209 183.59L956.095 182.596L955.102 182.71L955.215 183.703ZM959.929 224.98L958.936 225.094L959.049 226.087L960.043 225.974L959.929 224.98ZM981.426 222.526L982.419 222.412L982.306 221.419L981.312 221.532L981.426 222.526ZM981.993 227.493L982.107 228.487L983.1 228.373L982.987 227.38L981.993 227.493ZM954.897 230.588L955.89 230.474L950.609 184.229L949.615 184.343L948.622 184.456L953.903 230.701L954.897 230.588ZM949.615 184.343L949.729 185.336L955.329 184.697L955.215 183.703L955.102 182.71L949.502 183.349L949.615 184.343ZM955.215 183.703L954.222 183.817L958.936 225.094L959.929 224.98L960.923 224.867L956.209 183.59L955.215 183.703ZM959.929 224.98L960.043 225.974L981.539 223.519L981.426 222.526L981.312 221.532L959.816 223.987L959.929 224.98ZM981.426 222.526L980.432 222.639L981 227.607L981.993 227.493L982.987 227.38L982.419 222.412L981.426 222.526ZM981.993 227.493L981.88 226.5L954.783 229.594L954.897 230.588L955.01 231.581L982.107 228.487L981.993 227.493ZM1024.04 212.077L1023.1 211.737L1023.1 211.737L1024.04 212.077ZM1017.73 221.124L1018.36 221.905L1018.36 221.905L1017.73 221.124ZM996.689 223.527L996.257 224.429L996.257 224.429L996.689 223.527ZM988.502 216.136L989.342 215.593L989.342 215.593L988.502 216.136ZM985.614 190.846L984.673 190.506L985.614 190.846ZM1012.97 179.395L1013.4 178.493L1013.4 178.493L1012.97 179.395ZM1021.16 186.787L1020.32 187.33L1020.32 187.33L1021.16 186.787ZM1016.65 189.84L1015.81 190.373L1015.81 190.377L1016.65 189.84ZM1010.54 184.201L1010.11 185.104L1010.12 185.105L1010.54 184.201ZM995.347 185.937L994.726 185.153L994.723 185.155L995.347 185.937ZM990.665 192.808L989.722 192.476L989.72 192.48L990.665 192.808ZM992.98 213.085L992.134 213.618L992.137 213.622L992.98 213.085ZM999.091 218.724L998.66 219.626L998.663 219.627L999.091 218.724ZM1014.29 216.988L1013.67 216.205L1013.66 216.207L1014.29 216.988ZM1018.97 210.117L1018.03 209.785L1018.03 209.789L1018.97 210.117ZM1025.24 199.13L1024.25 199.244C1024.79 204.003 1024.4 208.158 1023.1 211.737L1024.04 212.077L1024.98 212.417C1026.4 208.488 1026.81 204.013 1026.24 199.017L1025.24 199.13ZM1024.04 212.077L1023.1 211.737C1021.8 215.334 1019.8 218.191 1017.11 220.343L1017.73 221.124L1018.36 221.905C1021.37 219.502 1023.57 216.327 1024.98 212.417L1024.04 212.077ZM1017.73 221.124L1017.11 220.343C1014.42 222.493 1011.2 223.792 1007.43 224.223L1007.54 225.216L1007.66 226.21C1011.77 225.74 1015.35 224.311 1018.36 221.905L1017.73 221.124ZM1007.54 225.216L1007.43 224.223C1003.65 224.654 1000.23 224.113 997.121 222.626L996.689 223.527L996.257 224.429C999.733 226.094 1003.54 226.679 1007.66 226.21L1007.54 225.216ZM996.689 223.527L997.121 222.626C994.012 221.137 991.418 218.805 989.342 215.593L988.502 216.136L987.662 216.679C989.92 220.17 992.784 222.766 996.257 224.429L996.689 223.527ZM988.502 216.136L989.342 215.593C987.276 212.397 985.953 208.438 985.41 203.679L984.416 203.793L983.423 203.906C983.993 208.902 985.395 213.172 987.662 216.679L988.502 216.136ZM984.416 203.793L985.41 203.679C984.866 198.92 985.262 194.765 986.555 191.185L985.614 190.846L984.673 190.506C983.255 194.434 982.852 198.91 983.423 203.906L984.416 203.793ZM985.614 190.846L986.555 191.185C987.854 187.588 989.855 184.732 992.548 182.58L991.924 181.799L991.3 181.017C988.291 183.421 986.086 186.596 984.673 190.506L985.614 190.846ZM991.924 181.799L992.548 182.58C995.239 180.43 998.455 179.131 1002.23 178.7L1002.12 177.707L1002 176.713C997.889 177.183 994.31 178.612 991.3 181.017L991.924 181.799ZM1002.12 177.707L1002.23 178.7C1006 178.269 1009.43 178.809 1012.54 180.297L1012.97 179.395L1013.4 178.493C1009.93 176.829 1006.12 176.243 1002 176.713L1002.12 177.707ZM1012.97 179.395L1012.54 180.297C1015.65 181.786 1018.24 184.118 1020.32 187.33L1021.16 186.787L1022 186.244C1019.74 182.752 1016.87 180.157 1013.4 178.493L1012.97 179.395ZM1021.16 186.787L1020.32 187.33C1022.38 190.526 1023.7 194.485 1024.25 199.244L1025.24 199.13L1026.24 199.017C1025.66 194.021 1024.26 189.751 1022 186.244L1021.16 186.787ZM1019.82 199.749L1020.82 199.636C1020.35 195.525 1019.26 192.066 1017.5 189.303L1016.65 189.84L1015.81 190.377C1017.36 192.817 1018.38 195.964 1018.83 199.863L1019.82 199.749ZM1016.65 189.84L1017.5 189.307C1015.78 186.566 1013.6 184.546 1010.97 183.298L1010.54 184.201L1010.12 185.105C1012.35 186.168 1014.26 187.907 1015.81 190.373L1016.65 189.84ZM1010.54 184.201L1010.98 183.299C1008.38 182.057 1005.58 181.612 1002.6 181.952L1002.71 182.945L1002.83 183.939C1005.45 183.639 1007.87 184.032 1010.11 185.104L1010.54 184.201ZM1002.71 182.945L1002.6 181.952C999.624 182.292 996.991 183.357 994.726 185.153L995.347 185.937L995.969 186.72C997.927 185.167 1000.2 184.238 1002.83 183.939L1002.71 182.945ZM995.347 185.937L994.723 185.155C992.46 186.962 990.8 189.418 989.722 192.476L990.665 192.808L991.608 193.141C992.58 190.382 994.042 188.258 995.971 186.719L995.347 185.937ZM990.665 192.808L989.72 192.48C988.648 195.564 988.373 199.178 988.842 203.287L989.836 203.174L990.829 203.06C990.384 199.161 990.661 195.864 991.609 193.136L990.665 192.808ZM989.836 203.174L988.842 203.287C989.311 207.396 990.394 210.855 992.134 213.618L992.98 213.085L993.827 212.553C992.288 210.109 991.274 206.96 990.829 203.06L989.836 203.174ZM992.98 213.085L992.137 213.622C993.876 216.358 996.047 218.376 998.66 219.626L999.091 218.724L999.523 217.822C997.296 216.757 995.394 215.017 993.824 212.549L992.98 213.085ZM999.091 218.724L998.663 219.627C1001.27 220.867 1004.08 221.311 1007.06 220.971L1006.94 219.977L1006.83 218.984C1004.21 219.283 1001.78 218.892 999.52 217.82L999.091 218.724ZM1006.94 219.977L1007.06 220.971C1010.03 220.631 1012.66 219.566 1014.91 217.77L1014.29 216.988L1013.66 216.207C1011.72 217.756 1009.45 218.684 1006.83 218.984L1006.94 219.977ZM1014.29 216.988L1014.91 217.772C1017.19 215.963 1018.85 213.505 1019.92 210.446L1018.97 210.117L1018.03 209.789C1017.07 212.542 1015.61 214.664 1013.67 216.205L1014.29 216.988ZM1018.97 210.117L1019.91 210.45C1021 207.362 1021.29 203.746 1020.82 199.636L1019.82 199.749L1018.83 199.863C1019.27 203.761 1018.99 207.057 1018.03 209.785L1018.97 210.117ZM1062.37 171.467L1062.25 170.473L1061.26 170.587L1061.37 171.58L1062.37 171.467ZM1067.97 170.827L1068.96 170.714L1068.85 169.72L1067.85 169.834L1067.97 170.827ZM1070.19 210.169L1069.28 209.755L1069.28 209.757L1070.19 210.169ZM1064.61 216.732L1065.17 217.559L1065.17 217.556L1064.61 216.732ZM1045.64 218.898L1045.27 219.829L1045.28 219.83L1045.64 218.898ZM1038.69 213.767L1037.9 214.372L1037.9 214.377L1038.69 213.767ZM1032.02 174.932L1031.9 173.939L1030.91 174.052L1031.02 175.046L1032.02 174.932ZM1037.62 174.293L1038.61 174.179L1038.5 173.186L1037.5 173.299L1037.62 174.293ZM1043.24 210.319L1042.43 210.906L1042.43 210.909L1043.24 210.319ZM1047.96 213.967L1047.58 214.892L1047.59 214.896L1047.96 213.967ZM1061.24 212.45L1061.81 213.272L1061.81 213.269L1061.24 212.45ZM1065.01 207.833L1064.09 207.444L1064.09 207.447L1065.01 207.833ZM1062.37 171.467L1062.48 172.46L1068.08 171.821L1067.97 170.827L1067.85 169.834L1062.25 170.473L1062.37 171.467ZM1067.97 170.827L1066.97 170.941L1070.47 201.56L1071.46 201.446L1072.46 201.333L1068.96 170.714L1067.97 170.827ZM1071.46 201.446L1070.47 201.56C1070.81 204.558 1070.41 207.281 1069.28 209.755L1070.19 210.169L1071.1 210.583C1072.39 207.749 1072.84 204.657 1072.46 201.333L1071.46 201.446ZM1070.19 210.169L1069.28 209.757C1068.17 212.218 1066.43 214.266 1064.04 215.908L1064.61 216.732L1065.17 217.556C1067.84 215.722 1069.83 213.395 1071.1 210.582L1070.19 210.169ZM1064.61 216.732L1064.04 215.905C1061.67 217.521 1058.75 218.545 1055.25 218.944L1055.37 219.938L1055.48 220.931C1059.24 220.502 1062.48 219.389 1065.17 217.559L1064.61 216.732ZM1055.37 219.938L1055.25 218.944C1051.75 219.343 1048.68 219.004 1046 217.966L1045.64 218.898L1045.28 219.83C1048.31 221.007 1051.72 221.36 1055.48 220.931L1055.37 219.938ZM1045.64 218.898L1046 217.967C1043.31 216.907 1041.14 215.303 1039.49 213.156L1038.69 213.767L1037.9 214.377C1039.79 216.828 1042.26 218.644 1045.27 219.829L1045.64 218.898ZM1038.69 213.767L1039.49 213.162C1037.85 211.003 1036.85 208.438 1036.51 205.438L1035.51 205.552L1034.52 205.665C1034.9 208.988 1036.02 211.9 1037.9 214.372L1038.69 213.767ZM1035.51 205.552L1036.51 205.438L1033.01 174.819L1032.02 174.932L1031.02 175.046L1034.52 205.665L1035.51 205.552ZM1032.02 174.932L1032.13 175.926L1037.73 175.286L1037.62 174.293L1037.5 173.299L1031.9 173.939L1032.02 174.932ZM1037.62 174.293L1036.62 174.406L1040.07 204.574L1041.06 204.46L1042.06 204.347L1038.61 174.179L1037.62 174.293ZM1041.06 204.46L1040.07 204.574C1040.34 206.983 1041.12 209.103 1042.43 210.906L1043.24 210.319L1044.05 209.732C1042.97 208.24 1042.3 206.454 1042.06 204.347L1041.06 204.46ZM1043.24 210.319L1042.43 210.909C1043.74 212.698 1045.46 214.026 1047.58 214.892L1047.96 213.967L1048.34 213.041C1046.55 212.309 1045.13 211.206 1044.05 209.729L1043.24 210.319ZM1047.96 213.967L1047.59 214.896C1049.74 215.751 1052.18 216.001 1054.88 215.692L1054.77 214.699L1054.65 213.705C1052.21 213.985 1050.11 213.746 1048.33 213.038L1047.96 213.967ZM1054.77 214.699L1054.88 215.692C1057.58 215.384 1059.9 214.59 1061.81 213.272L1061.24 212.45L1060.67 211.629C1059.09 212.721 1057.1 213.426 1054.65 213.705L1054.77 214.699ZM1061.24 212.45L1061.81 213.269C1063.69 211.946 1065.08 210.261 1065.93 208.22L1065.01 207.833L1064.09 207.447C1063.38 209.122 1062.25 210.514 1060.66 211.632L1061.24 212.45ZM1065.01 207.833L1065.93 208.223C1066.8 206.172 1067.08 203.929 1066.8 201.521L1065.81 201.634L1064.82 201.748C1065.06 203.855 1064.81 205.746 1064.09 207.444L1065.01 207.833ZM1065.81 201.634L1066.8 201.521L1063.36 171.353L1062.37 171.467L1061.37 171.58L1064.82 201.748L1065.81 201.634ZM1084.43 215.795L1083.44 215.908L1083.55 216.902L1084.54 216.788L1084.43 215.795ZM1079.15 169.55L1079.03 168.556L1078.04 168.67L1078.15 169.664L1079.15 169.55ZM1105.88 169.31L1105.48 170.227L1105.49 170.228L1105.88 169.31ZM1114.13 176.398L1113.29 176.939L1113.29 176.941L1114.13 176.398ZM1116.93 201.171L1117.88 201.511L1117.88 201.509L1116.93 201.171ZM1110.35 210.021L1110.94 210.831L1110.94 210.829L1110.35 210.021ZM1089.46 210.188L1088.47 210.301L1088.58 211.295L1089.58 211.181L1089.46 210.188ZM1107.03 205.94L1106.42 205.141L1107.03 205.94ZM1109.74 179.621L1108.88 180.133L1108.88 180.134L1109.74 179.621ZM1103.56 174.013L1103.15 174.923L1103.15 174.925L1103.56 174.013ZM1085.32 173.878L1085.2 172.885L1084.21 172.998L1084.32 173.992L1085.32 173.878ZM1098.7 214.165L1098.59 213.172L1084.32 214.801L1084.43 215.795L1084.54 216.788L1098.81 215.159L1098.7 214.165ZM1084.43 215.795L1085.42 215.681L1080.14 169.437L1079.15 169.55L1078.15 169.664L1083.44 215.908L1084.43 215.795ZM1079.15 169.55L1079.26 170.544L1094.16 168.842L1094.05 167.848L1093.94 166.855L1079.03 168.556L1079.15 169.55ZM1094.05 167.848L1094.16 168.842C1098.51 168.345 1102.27 168.824 1105.48 170.227L1105.88 169.31L1106.29 168.394C1102.69 166.823 1098.56 166.327 1093.94 166.855L1094.05 167.848ZM1105.88 169.31L1105.49 170.228C1108.7 171.618 1111.3 173.845 1113.29 176.939L1114.13 176.398L1114.97 175.857C1112.77 172.445 1109.87 169.947 1106.28 168.393L1105.88 169.31ZM1114.13 176.398L1113.29 176.941C1115.28 180.021 1116.56 183.878 1117.09 188.549L1118.09 188.436L1119.08 188.322C1118.52 183.419 1117.16 179.251 1114.97 175.855L1114.13 176.398ZM1118.09 188.436L1117.09 188.549C1117.63 193.25 1117.25 197.335 1115.99 200.833L1116.93 201.171L1117.88 201.509C1119.26 197.661 1119.65 193.256 1119.08 188.322L1118.09 188.436ZM1116.93 201.171L1115.99 200.832C1114.74 204.307 1112.66 207.093 1109.76 209.214L1110.35 210.021L1110.94 210.829C1114.17 208.467 1116.49 205.352 1117.88 201.511L1116.93 201.171ZM1110.35 210.021L1109.76 209.211C1106.86 211.315 1103.15 212.65 1098.59 213.172L1098.7 214.165L1098.81 215.159C1103.64 214.608 1107.7 213.18 1110.94 210.831L1110.35 210.021ZM1089.46 210.188L1089.58 211.181L1097.89 210.232L1097.77 209.239L1097.66 208.245L1089.35 209.194L1089.46 210.188ZM1097.77 209.239L1097.89 210.232C1101.83 209.782 1105.1 208.637 1107.63 206.74L1107.03 205.94L1106.42 205.141C1104.26 206.768 1101.36 207.823 1097.66 208.245L1097.77 209.239ZM1107.03 205.94L1107.63 206.74C1110.14 204.85 1111.9 202.362 1112.88 199.305L1111.93 198.998L1110.98 198.691C1110.12 201.366 1108.6 203.506 1106.42 205.141L1107.03 205.94ZM1111.93 198.998L1112.88 199.305C1113.86 196.273 1114.1 192.81 1113.66 188.941L1112.67 189.054L1111.68 189.168C1112.09 192.825 1111.85 195.991 1110.98 198.691L1111.93 198.998ZM1112.67 189.054L1113.66 188.941C1113.22 185.102 1112.21 181.813 1110.6 179.108L1109.74 179.621L1108.88 180.134C1110.32 182.54 1111.26 185.54 1111.68 189.168L1112.67 189.054ZM1109.74 179.621L1110.6 179.11C1108.97 176.374 1106.76 174.359 1103.97 173.102L1103.56 174.013L1103.15 174.925C1105.54 176.004 1107.45 177.729 1108.88 180.133L1109.74 179.621ZM1103.56 174.013L1103.98 173.104C1101.18 171.826 1097.89 171.436 1094.14 171.864L1094.26 172.857L1094.37 173.851C1097.85 173.453 1100.76 173.833 1103.15 174.923L1103.56 174.013ZM1094.26 172.857L1094.14 171.864L1085.2 172.885L1085.32 173.878L1085.43 174.872L1094.37 173.851L1094.26 172.857ZM1085.32 173.878L1084.32 173.992L1088.47 210.301L1089.46 210.188L1090.46 210.074L1086.31 173.765L1085.32 173.878Z" fill="black" mask="url(#path-4-outside-2_63_5)"/>
</g>
</g>
</svg>
