<svg xmlns="http://www.w3.org/2000/svg" enable-background="new 0 0 66 66" viewBox="0 0 66 66"><path fill="none" stroke="#101f2d" stroke-linecap="round" stroke-linejoin="round" stroke-miterlimit="10" stroke-width="2" d="M56.6,48.8H9.4c-3.9,0-7.1-3.2-7.1-7.1l0,0c0-3.9,3.2-7.1,7.1-7.1h47.2c3.9,0,7.1,3.2,7.1,7.1l0,0   C63.6,45.6,60.5,48.8,56.6,48.8z"/><path fill="#64c4f6" stroke="#101f2d" stroke-linecap="round" stroke-linejoin="round" stroke-miterlimit="10" stroke-width="2" d="M15.9,41.7c0,1.7-1.4,3.1-3.1,3.1s-3.1-1.4-3.1-3.1s1.4-3.1,3.1-3.1C14.5,38.6,15.9,40,15.9,41.7z"/><path fill="none" stroke="#101f2d" stroke-linecap="round" stroke-linejoin="round" stroke-miterlimit="10" stroke-width="2" d="M25.3,41.7c0,1.7-1.4,3.1-3.1,3.1s-3.1-1.4-3.1-3.1s1.4-3.1,3.1-3.1C23.9,38.6,25.3,40,25.3,41.7z"/><path fill="#ef6561" stroke="#101f2d" stroke-linecap="round" stroke-linejoin="round" stroke-miterlimit="10" stroke-width="2" d="M34.7,41.7c0,1.7-1.4,3.1-3.1,3.1c-1.7,0-3.1-1.4-3.1-3.1s1.4-3.1,3.1-3.1C33.3,38.6,34.7,40,34.7,41.7z"/><line x1="39.4" x2="42.8" y1="39.4" y2="39.4" fill="none" stroke="#101f2d" stroke-linecap="round" stroke-linejoin="round" stroke-miterlimit="10" stroke-width="2"/><line x1="39.4" x2="42.8" y1="44.1" y2="44.1" fill="none" stroke="#101f2d" stroke-linecap="round" stroke-linejoin="round" stroke-miterlimit="10" stroke-width="2"/><line x1="46.1" x2="49.6" y1="39.4" y2="39.4" fill="none" stroke="#101f2d" stroke-linecap="round" stroke-linejoin="round" stroke-miterlimit="10" stroke-width="2"/><line x1="46.1" x2="49.6" y1="44.1" y2="44.1" fill="none" stroke="#101f2d" stroke-linecap="round" stroke-linejoin="round" stroke-miterlimit="10" stroke-width="2"/><line x1="52.9" x2="56.3" y1="39.4" y2="39.4" fill="none" stroke="#101f2d" stroke-linecap="round" stroke-linejoin="round" stroke-miterlimit="10" stroke-width="2"/><line x1="52.9" x2="56.3" y1="44.1" y2="44.1" fill="none" stroke="#101f2d" stroke-linecap="round" stroke-linejoin="round" stroke-miterlimit="10" stroke-width="2"/><path fill="none" stroke="#101f2d" stroke-linecap="round" stroke-linejoin="round" stroke-miterlimit="10" stroke-width="2" d="M3.1,38.5L11.2,5c0.4-1.8,2-3.1,3.9-3.1h35.8c1.9,0,3.5,1.3,3.9,3.1l8.1,33.5"/><line x1="33" x2="33" y1="34.7" y2="16.7" fill="none" stroke="#101f2d" stroke-linecap="round" stroke-linejoin="round" stroke-miterlimit="10" stroke-width="2"/><path fill="none" stroke="#101f2d" stroke-linecap="round" stroke-linejoin="round" stroke-miterlimit="10" stroke-width="2" d="M36.6,12.5c0,2-1.6,3.6-3.6,3.6s-3.6-1.6-3.6-3.6S31,8.9,33,8.9S36.6,10.5,36.6,12.5z"/><circle cx="43.8" cy="10.7" r="3.6" fill="#64c4f6" stroke="#101f2d" stroke-linecap="round" stroke-linejoin="round" stroke-miterlimit="10" stroke-width="2"/><polyline fill="none" stroke="#101f2d" stroke-linecap="round" stroke-linejoin="round" stroke-miterlimit="10" stroke-width="2" points="39.2 34.7 39.2 25.9 43.8 21.3 43.8 14.2"/><path fill="#ef6561" stroke="#101f2d" stroke-linecap="round" stroke-linejoin="round" stroke-miterlimit="10" stroke-width="2" d="M18.7,10.7c0,2,1.6,3.6,3.6,3.6s3.6-1.6,3.6-3.6s-1.6-3.6-3.6-3.6C20.3,7.1,18.7,8.7,18.7,10.7z"/><polyline fill="none" stroke="#101f2d" stroke-linecap="round" stroke-linejoin="round" stroke-miterlimit="10" stroke-width="2" points="26.8 34.7 26.8 25.9 22.2 21.3 22.2 14.2"/><path fill="#64c4f6" stroke="#101f2d" stroke-linecap="round" stroke-linejoin="round" stroke-miterlimit="10" stroke-width="2" d="M17.4,20.1c0,1.4-1.2,2.6-2.6,2.6s-2.6-1.2-2.6-2.6s1.2-2.6,2.6-2.6S17.4,18.6,17.4,20.1z"/><polyline fill="none" stroke="#101f2d" stroke-linecap="round" stroke-linejoin="round" stroke-miterlimit="10" stroke-width="2" points="19.7 34.7 19.7 29.3 14.8 27.3 14.8 22.6"/><path fill="#ef6561" stroke="#101f2d" stroke-linecap="round" stroke-linejoin="round" stroke-miterlimit="10" stroke-width="2" d="M48.6,20.1c0,1.4,1.2,2.6,2.6,2.6s2.6-1.2,2.6-2.6s-1.2-2.6-2.6-2.6S48.6,18.6,48.6,20.1z"/><polyline fill="none" stroke="#101f2d" stroke-linecap="round" stroke-linejoin="round" stroke-miterlimit="10" stroke-width="2" points="46.3 34.7 46.3 29.3 51.2 27.3 51.2 22.6"/><rect width="6.2" height="7.1" x="29.9" y="48.8" fill="#ef6561" stroke="#101f2d" stroke-linecap="round" stroke-linejoin="round" stroke-miterlimit="10" stroke-width="2"/><path fill="#64c4f6" stroke="#101f2d" stroke-linecap="round" stroke-linejoin="round" stroke-miterlimit="10" stroke-width="2" d="M55.9,61.2H10.1c-1.3,0-2.4-1.1-2.4-2.4l0,0c0-1.3,1.1-2.4,2.4-2.4h45.8c1.3,0,2.4,1.1,2.4,2.4l0,0   C58.4,60.1,57.3,61.2,55.9,61.2z"/><path fill="#ef6561" stroke="#101f2d" stroke-linecap="round" stroke-linejoin="round" stroke-miterlimit="10" stroke-width="2" d="M38.2,58.8c0,2.9-2.3,5.2-5.2,5.2s-5.2-2.3-5.2-5.2s2.3-5.2,5.2-5.2S38.2,55.9,38.2,58.8z"/></svg>