<svg xmlns="http://www.w3.org/2000/svg" viewBox="0 0 64 64"><path fill="#f2f2f2" d="M9 3h42v58H9z"/><path fill="none" d="M6 54a3 3 0 0 0 3 3v-6a3 3 0 0 0-3 3zm0-33a3 3 0 0 0 3 3v-6a3 3 0 0 0-3 3zm0 22a3 3 0 0 0 3 3v-6a3 3 0 0 0-3 3zm0-11a3 3 0 0 0 3 3v-6a3 3 0 0 0-3 3zm0-22a3 3 0 0 0 3 3V7a3 3 0 0 0-3 3z"/><path fill="#8c959d" d="M9 38a5 5 0 0 0 0 10v-2a3 3 0 1 1 3-3 1 1 0 0 0 2 0 5.006 5.006 0 0 0-5-5zM9 5a5 5 0 0 0 0 10v-2a3 3 0 1 1 3-3 1 1 0 0 0 2 0 5.006 5.006 0 0 0-5-5zm0 11a5 5 0 0 0 0 10v-2a3 3 0 1 1 3-3 1 1 0 0 0 2 0 5.006 5.006 0 0 0-5-5zm0 11a5 5 0 0 0 0 10v-2a3 3 0 1 1 3-3 1 1 0 0 0 2 0 5.006 5.006 0 0 0-5-5zm0 22a5 5 0 0 0 0 10v-2a3 3 0 1 1 3-3 1 1 0 0 0 2 0 5.006 5.006 0 0 0-5-5z"/><path fill="#ccc" d="M17 34h26v20H17z"/><path fill="#29485a" d="M35 57h12v2H35zM28 57h5v2h-5z"/><path fill="#f0873d" d="M51 3h4v58h-4z"/><path fill="#82d1df" d="M59 50v11h-4V3h4v47z"/><path fill="#005c9a" d="M30 19a8 8 0 0 1 8 8v3H22v-3a8 8 0 0 1 8-8Z"/><circle cx="30" cy="11" r="4" fill="#005c9a"/><path d="M9 62h50a1 1 0 0 0 1-1V3a1 1 0 0 0-1-1H9a1 1 0 0 0-1 1v2.1a5 5 0 0 0 0 9.8v1.2a5 5 0 0 0 0 9.8v1.2a5 5 0 0 0 0 9.8v1.2a5 5 0 0 0 0 9.8v1.2a5 5 0 0 0 0 9.8V61a1 1 0 0 0 1 1Zm49-2h-2V4h2Zm-4 0h-2V4h2ZM50 4v56H10v-8.816A3 3 0 0 1 12 54a1 1 0 0 0 2 0 5.009 5.009 0 0 0-4-4.9v-8.916A3 3 0 0 1 12 43a1 1 0 0 0 2 0 5.009 5.009 0 0 0-4-4.9v-8.916A3 3 0 0 1 12 32a1 1 0 0 0 2 0 5.009 5.009 0 0 0-4-4.9v-8.916A3 3 0 0 1 12 21a1 1 0 0 0 2 0 5.009 5.009 0 0 0-4-4.9V7.184A3 3 0 0 1 12 10a1 1 0 0 0 2 0 5.009 5.009 0 0 0-4-4.9V4ZM6 10a3 3 0 0 1 2-2.816v5.632A3 3 0 0 1 6 10Zm0 11a3 3 0 0 1 2-2.816v5.632A3 3 0 0 1 6 21Zm0 11a3 3 0 0 1 2-2.816v5.632A3 3 0 0 1 6 32Zm0 11a3 3 0 0 1 2-2.816v5.632A3 3 0 0 1 6 43Zm0 11a3 3 0 0 1 2-2.816v5.632A3 3 0 0 1 6 54Z"/><path d="M17 55h26a1 1 0 0 0 1-1V34a1 1 0 0 0-1-1H17a1 1 0 0 0-1 1v20a1 1 0 0 0 1 1Zm1-20h24v18H18ZM35 57h12v2H35zM28 57h5v2h-5zM22 31h16a1 1 0 0 0 1-1v-3a9 9 0 0 0-18 0v3a1 1 0 0 0 1 1zm1-4a7 7 0 0 1 14 0v2H23zm7-11a5 5 0 1 0-5-5 5.006 5.006 0 0 0 5 5zm0-8a3 3 0 1 1-3 3 3 3 0 0 1 3-3z"/></svg>