<svg xmlns="http://www.w3.org/2000/svg" data-name="Layer 1" viewBox="0 0 168 168"><path fill="#2d4356" d="M92.60156 29.56764a9.234 9.234 0 00-17.2041.00049L57.542 77.788a8.617 8.617 0 00.29883 6.7309 8.97347 8.97347 0 005.248 4.65723 9.2305 9.2305 0 0011.6582-5.36475l4.2002-11.3446H89.05273l4.20117 11.34509a9.15784 9.15784 0 008.60156 5.87793 9.31364 9.31364 0 003.05273-.5127 8.97519 8.97519 0 005.251-4.6582 8.617 8.617 0 00.29883-6.7309v-.00049zM106.54492 82.806a5.01194 5.01194 0 01-2.94141 2.58984 5.32378 5.32378 0 01-1.748.29395 5.14109 5.14109 0 01-4.85059-3.26709L92.32129 69.77241a2.001 2.001 0 00-1.876-1.30566H77.55469a2.001 2.001 0 00-1.876 1.30566L70.99609 82.4217a5.21066 5.21066 0 01-6.60352 2.97314 5.01114 5.01114 0 01-2.9375-2.58887 4.64718 4.64718 0 01-.16113-3.62982L79.14844 30.95729a5.23579 5.23579 0 019.70215-.00049l17.85547 48.21887A4.64829 4.64829 0 01106.54492 82.806zM52.23438 110.05482H44.4707a2.0001 2.0001 0 00-2 2v10.454a2.0001 2.0001 0 002 2h7.77246a7.22727 7.22727 0 10-.00879-14.454zm0 10.454H46.4707v-6.4541h5.76367a3.22775 3.22775 0 110 6.4541z"/><path fill="#2d4356" d="M85.98828,39.47187a2.00049,2.00049,0,0,0-3.9043-.35547l-6,19.99982A2.00056,2.00056,0,0,0,78,61.69093H90a2.00058,2.00058,0,0,0,1.915-2.57764ZM80.68848,57.691l3.2998-11.00092L87.30762,57.691Z"/><path fill="#0bceb2" d="M26,95.69068a2.0001,2.0001,0,0,0,2,2H82v51.99957a2,2,0,0,0,4,0V97.69068h54a2,2,0,0,0,0-4H28A2.0001,2.0001,0,0,0,26,95.69068Z"/><path fill="#2d4356" d="M42.16667 21.69029a3 3 0 10-3-3A3.00344 3.00344 0 0042.16667 21.69029zm0-4.5a1.5 1.5 0 11-1.5 1.5A1.50148 1.50148 0 0142.16667 17.19029zM162.5 18.69029a2 2 0 102 2A2.00229 2.00229 0 00162.5 18.69029zm0 3a1 1 0 111-1A1.001 1.001 0 01162.5 21.69029zM5.5 5.02362a2 2 0 102 2A2.00229 2.00229 0 005.5 5.02362zm0 3a1 1 0 111-1A1.001 1.001 0 015.5 8.02362zM76.57466 2.87433a2 2 0 102.82816.03882A2.00229 2.00229 0 0076.57466 2.87433zm2.092 2.15024a1 1 0 11.01941-1.41408A1.001 1.001 0 0178.66667 5.02457zM134 44.02457a2 2 0 10-2 2A2.00229 2.00229 0 00134 44.02457zm-3 0a1 1 0 111 1A1.001 1.001 0 01131 44.02457z"/><polygon fill="#0bceb2" points="24.408 47.497 25.894 45.541 24.956 45.009 24.001 47.199 23.969 47.199 23 45.025 22.045 45.572 23.516 47.481 23.516 47.513 21.215 47.215 21.215 48.279 23.531 47.982 23.531 48.013 22.045 49.922 22.936 50.485 23.954 48.279 23.985 48.279 24.924 50.469 25.91 49.906 24.408 48.029 24.408 47.997 26.77 48.279 26.77 47.215 24.408 47.528 24.408 47.497"/><polygon fill="#0bceb2" points="100.63 21.934 99.774 23.033 100.288 23.358 100.874 22.087 100.891 22.087 101.432 23.349 102 23.025 101.135 21.943 101.135 21.925 102.495 22.087 102.495 21.475 101.135 21.655 101.135 21.637 101.991 20.511 101.451 20.204 100.901 21.466 100.883 21.466 100.324 20.213 99.774 20.529 100.621 21.628 100.621 21.646 99.296 21.475 99.296 22.087 100.63 21.916 100.63 21.934"/><polygon fill="#0bceb2" points="131.983 7.458 131.983 6.415 129.667 6.722 129.667 6.691 131.125 4.773 130.204 4.251 129.268 6.399 129.237 6.399 128.286 4.266 127.349 4.804 128.792 6.676 128.792 6.707 126.535 6.415 126.535 7.458 128.807 7.167 128.807 7.198 127.349 9.07 128.223 9.623 129.222 7.458 129.252 7.458 130.173 9.607 131.14 9.055 129.667 7.213 129.667 7.182 131.983 7.458"/><polygon fill="#0bceb2" points="62.943 41.943 64.201 40.288 63.407 39.838 62.599 41.691 62.572 41.691 61.752 39.851 60.944 40.315 62.189 41.93 62.189 41.956 60.242 41.705 60.242 42.605 62.202 42.353 62.202 42.38 60.944 43.995 61.698 44.472 62.56 42.605 62.585 42.605 63.38 44.458 64.214 43.982 62.943 42.393 62.943 42.366 64.942 42.605 64.942 41.705 62.943 41.969 62.943 41.943"/><circle cx="2" cy="149.691" r="2" fill="#2d4356"/><path fill="#2d4356" d="M11 147.69123H8a2 2 0 000 4h3a2 2 0 000-4zM160 147.69123h-3a2 2 0 000 4h3a2 2 0 000-4z"/><circle cx="166" cy="149.691" r="2" fill="#2d4356"/><path fill="#0bceb2" d="M118.15387 155.69123h-8.30774a2.00641 2.00641 0 000 4h8.30774a2.00641 2.00641 0 000-4zM58.15387 155.69123H49.84613a2.00641 2.00641 0 000 4h8.30774a2.00641 2.00641 0 000-4zM104 155.69123H64a2 2 0 000 4H79.94v2H72a2 2 0 000 4H97a2 2 0 000-4H88.06v-2H104a2 2 0 000-4z"/><path fill="#2d4356" d="M44.4707,143.327h7.76367a7.22731,7.22731,0,1,0,0-14.454H44.4707a2,2,0,0,0-2,1.99994v10.454A2.0001,2.0001,0,0,0,44.4707,143.327Zm2-10.454h5.76758a3.22768,3.22768,0,1,1-.00391,6.454H46.4707Z"/><path fill="#2d4356" d="M150.72131,147.69123H132.65a5.98339,5.98339,0,0,0-5.65-7.99994H115a4.00394,4.00394,0,0,1-4-3.99994V117.68952a4.0039,4.0039,0,0,1,4-3.99994h12a6,6,0,1,0,0-11.99994H115a16.01827,16.01827,0,0,0-16,15.99988v18.00183a15.95086,15.95086,0,0,0,5.45245,11.99988H62.74017a15.39794,15.39794,0,0,0,2.04889-21.00079A15.36027,15.36027,0,0,0,68,117.2823a15.69662,15.69662,0,0,0-15.76562-15.5907H40.29688c-.02051-.001-.041-.001-.06152-.001A6.21574,6.21574,0,0,0,34,107.8722v37.63647a6.09157,6.09157,0,0,0,.40894,2.18256H17.27869a2.017,2.017,0,1,0,0,4H150.72131a2.017,2.017,0,1,0,0-4ZM38,107.8722a2.21087,2.21087,0,0,1,2.19531-2.18158c.0166.00092.0332.00092.0498.00092H52.23438A11.69234,11.69234,0,0,1,64,117.2823a11.43694,11.43694,0,0,1-3.28711,8.01263,1.99924,1.99924,0,0,0,0,2.791A11.43683,11.43683,0,0,1,64,136.09858a11.69312,11.69312,0,0,1-11.76562,11.59167h-11.999A2.21147,2.21147,0,0,1,38,145.50868Zm77,39.819a12.01306,12.01306,0,0,1-12-11.99988V117.68952a12.01306,12.01306,0,0,1,12-11.99988h12a2,2,0,1,1,0,3.99994H115a8.00915,8.00915,0,0,0-8,7.99994v18.00183a8.00915,8.00915,0,0,0,8,7.99994h12a2,2,0,1,1,0,3.99994Z"/></svg>