<svg xmlns="http://www.w3.org/2000/svg" fill-rule="evenodd" stroke-linejoin="round" stroke-miterlimit="2" clip-rule="evenodd" viewBox="0 0 64 64"><ellipse cx="17.717" cy="35.943" fill="#03a9f4" rx="11.283" ry="2.943"/><path fill="#29b6f6" d="M18.217 38.884c-5.996-.068-10.783-1.36-10.783-2.941 0-1.58 4.787-2.872 10.783-2.94a41.545 41.545 0 0 0-.5-.003c-6.227 0-11.283 1.319-11.283 2.943 0 1.625 5.056 2.944 11.283 2.944.167 0 .334-.001.5-.003Z"/><path fill="#039be5" d="M17.217 33.003c5.996.068 10.783 1.36 10.783 2.94 0 1.581-4.787 2.873-10.783 2.941.166.002.332.003.5.003 6.227 0 11.283-1.319 11.283-2.944C29 34.319 23.944 33 17.717 33c-.168 0-.334.001-.5.003Z"/><path fill="#0277bd" d="M21.31 7.374a5.67 5.67 0 0 1 5.057-3.107 5.669 5.669 0 0 1 5.666 5.666c0 .055 0 .11-.002.164a3.972 3.972 0 0 1 2.836 3.803c0 .842-.264 1.624-.712 2.267h.712a1.133 1.133 0 0 1 0 2.266h-15.3a5.67 5.67 0 0 1-5.667-5.666 5.67 5.67 0 0 1 7.41-5.393Z"/><path fill="#01579b" d="M22.04 6.276a5.653 5.653 0 0 1 4.327-2.009 5.669 5.669 0 0 1 5.666 5.666c0 .055 0 .11-.002.164a3.972 3.972 0 0 1 2.836 3.803c0 .842-.264 1.624-.712 2.267h.712a1.133 1.133 0 0 1 0 2.266h-3.27a1.131 1.131 0 0 0-.73-.266h-.712a3.954 3.954 0 0 0 .712-2.267 3.972 3.972 0 0 0-2.836-3.803c.002-.054.002-.109.002-.164a5.669 5.669 0 0 0-5.993-5.657Z"/><path fill="#fb8c00" d="m52 2 1.875 1.26a.478.478 0 0 0 .34.078l2.235-.322 1.143 1.948c.03.052.069.097.116.134.046.038.1.066.156.084l2.154.68.184 2.251a.478.478 0 0 0 .151.314L62 9.975l-.811 2.108a.472.472 0 0 0 0 .349L62 14.54l-1.646 1.547a.49.49 0 0 0-.151.314l-.184 2.251-2.154.68a.491.491 0 0 0-.272.218l-1.143 1.949-2.235-.322a.485.485 0 0 0-.34.077L52 22.514l-1.875-1.26a.478.478 0 0 0-.34-.077l-2.235.322-1.143-1.949a.491.491 0 0 0-.272-.218l-2.154-.68-.184-2.251a.49.49 0 0 0-.151-.314L42 14.54l.811-2.108a.477.477 0 0 0 0-.349L42 9.975l1.646-1.548a.478.478 0 0 0 .151-.314l.184-2.251 2.154-.68a.472.472 0 0 0 .156-.084.466.466 0 0 0 .116-.134l1.143-1.948 2.235.322a.486.486 0 0 0 .34-.078L52 2Z"/><path fill="#f57c00" d="m56.45 21.499-.381-.055.524-.894a.491.491 0 0 1 .272-.218l.33-.104-.745 1.271Zm3.788-5.243a.48.48 0 0 0-.035.145l-.184 2.251-.942.298.126-1.549a.49.49 0 0 1 .151-.314l.884-.831ZM46.931 4.071l.619-1.055 2.235.322a.486.486 0 0 0 .34-.078L52 2l1.875 1.26a.478.478 0 0 0 .34.078l2.235-.322 1.143 1.948c.03.052.069.097.116.134.046.038.1.066.156.084l2.154.68.184 2.251a.478.478 0 0 0 .151.314L62 9.975l-.811 2.108a.472.472 0 0 0 0 .349L62 14.54l-1.017.956-.794-2.064a.477.477 0 0 1 0-.349L61 10.975l-1.646-1.548a.478.478 0 0 1-.151-.314l-.184-2.251-2.154-.68a.472.472 0 0 1-.156-.084.466.466 0 0 1-.116-.134L55.45 4.016l-2.235.322a.486.486 0 0 1-.34-.078L51 3l-1.875 1.26a.478.478 0 0 1-.34.078l-1.854-.267Zm-4.169 5.187c-.004.009-.007.018-.012.026a.462.462 0 0 1-.104.143l-.629.592L42 9.975l.762-.717Zm3.043-3.972-.398.678a.466.466 0 0 1-.116.134.472.472 0 0 1-.156.084l-1.212.382.058-.702 1.824-.576Z"/><circle cx="52" cy="12.257" r="6.411" fill="#ef6c00"/><path fill="#e65100" d="M46.579 8.836A6.407 6.407 0 0 1 52 5.846a6.414 6.414 0 0 1 6.411 6.411 6.407 6.407 0 0 1-2.99 5.421c.627-.99.99-2.163.99-3.421A6.414 6.414 0 0 0 50 7.846a6.374 6.374 0 0 0-3.421.99Z"/><path fill="#0277bd" d="M8.233 24.533A2.834 2.834 0 0 1 5.4 21.7a2.834 2.834 0 0 1 5.134-1.653 3.968 3.968 0 0 1 7.528-1.156 2.835 2.835 0 0 1 3.148 3.376h2.89a1.133 1.133 0 1 1 0 2.266H8.233Z"/><path fill="#01579b" d="M11.207 18.307a3.965 3.965 0 0 1 6.855.584 2.835 2.835 0 0 1 3.148 3.376h2.89a1.133 1.133 0 0 1 .126 2.259 1.133 1.133 0 0 0-1.126-1.259h-2.89a2.835 2.835 0 0 0-3.148-3.376 3.968 3.968 0 0 0-5.855-1.584Z"/><path fill="#039be5" d="M9.028 6.071A5.672 5.672 0 0 1 14.467 2a5.672 5.672 0 0 1 5.59 4.733 3.969 3.969 0 0 1 6.31 3.2A3.969 3.969 0 0 1 22.4 13.9l-18.7.012A1.72 1.72 0 0 1 2 12.2c0-.938.762-1.7 1.7-1.7h2.307a3.97 3.97 0 0 1 3.021-4.429Z"/><path fill="#0288d1" d="M10.14 4.009A5.656 5.656 0 0 1 14.467 2a5.672 5.672 0 0 1 5.59 4.733 3.969 3.969 0 0 1 6.31 3.2A3.969 3.969 0 0 1 22.4 13.9h-.555a3.969 3.969 0 0 0-5.788-5.167 5.672 5.672 0 0 0-5.917-4.724Z"/><path fill="#4fc3f7" d="M33.333 35.468s2.344-.653 4.041-1.457c1.979-.923 1.6-3.987 4.701-4.412 3.578-.167 4.476 3.795 1.137 5.337 0 0 1.02-3.432-.946-2.965-2.154.673-1.08 3.136-4.327 3.669-3.11.511-4.606-.172-4.606-.172Z"/><path fill="#81d4fa" d="M36.266 35.818c-1.975.087-2.933-.35-2.933-.35s2.344-.653 4.041-1.457c1.979-.923 1.6-3.987 4.701-4.412.28-.013.544-.001.79.034-2.874.532-2.558 3.476-4.491 4.378-1.697.804-4.041 1.457-4.041 1.457s.634.289 1.933.35Zm6.785-3.77c.068-.027.139-.053.215-.077 1.347-.32 1.293 1.19 1.125 2.173a4.19 4.19 0 0 1-1.179.792s.692-2.326-.161-2.888Z"/><path fill="#29b6f6" d="M35.266 35.818a14.043 14.043 0 0 0 1.673-.178c3.247-.533 2.173-2.996 4.327-3.669.348-.083.602-.043.785.077-1.869.767-.979 3.078-4.112 3.592a12.752 12.752 0 0 1-2.673.178Zm6.599-6.185c2.452.342 3.205 2.876 1.526 4.511-.077.451-.179.792-.179.792 3.339-1.542 2.441-5.504-1.137-5.337a4.19 4.19 0 0 0-.21.034Z"/><path fill="#4fc3f7" d="M48 33.558s.352-2.307 3.168-2.828c2.815-.521 2.776 2.121 5.279 2.27 2.503.149 3.207-3.795-.469-4.056C57.503 27.381 62 27.53 62 31.139c0 3.275-1.916 4.466-5.279 4.354-3.363-.112-2.738-2.493-4.889-3.014-2.111.149-3.832 1.079-3.832 1.079Z"/><path fill="#81d4fa" d="M52.108 32.561a8.75 8.75 0 0 1 .724-.082c2.132.516 1.537 2.859 4.797 3.01-.289.013-.593.014-.908.004-3.211-.107-2.786-2.282-4.613-2.932Zm-2.964.506a9.148 9.148 0 0 0-1.144.491s.352-2.307 3.168-2.828c.457-.084.838-.086 1.168-.028-.055.008-.111.018-.168.028-1.992.369-2.751 1.63-3.024 2.337Zm7.906-.114c1.988-.455 2.288-3.771-1.072-4.009.676-.693 1.936-1.049 3.13-.917-.851.093-1.643.418-2.13.917 3.676.261 2.972 4.205.469 4.056a3.401 3.401 0 0 1-.397-.047Z"/><path fill="#29b6f6" d="M58.108 28.027c1.811-.197 3.892.657 3.892 3.112 0 3.275-1.916 4.466-5.279 4.354a2.83 2.83 0 0 1-.092-.004c2.798-.126 4.371-1.383 4.371-4.35 0-2.009-1.394-2.946-2.892-3.112Zm-9.964 5.04a10.208 10.208 0 0 1 2.688-.588c.098.024.19.051.276.082-1.767.272-3.108.997-3.108.997s.03-.198.144-.491Zm3.192-2.365c2.496-.364 2.649 1.872 4.714 2.251-.186.042-.388.06-.603.047-2.097-.125-2.409-1.999-4.111-2.298Z"/><path fill="#4fc3f7" d="M32 40.515s3.938-1.727 5.568-2.241c3.335-.736 4.137-.588 6.881.624 4.176 1.14 6.483.956 9.307-.294 2.864-1.359 7.756-1.837 8.194.772.358 2.132-1.313 4.124-1.313 4.124s.127-4.029-2.141-4.029c-2.009.136-4.89 2.206-10.345 2.257-2.988.131-4.112-2.223-7.878-2.278-2.7-.04-8.273 1.065-8.273 1.065Z"/><path fill="#81d4fa" d="M58.985 39.541c.176-.035.346-.059.511-.07 1.338 0 1.843 1.403 2.031 2.553-.393.884-.89 1.476-.89 1.476s.108-3.424-1.652-3.959Zm-18.391-.081c.241-.01.469-.013.679-.01 3.502.051 4.72 2.09 7.275 2.271-.131.003-.263.006-.397.007-2.901.127-4.046-2.089-7.557-2.268Zm-6.86.737a87.063 87.063 0 0 0-1.734.318s3.938-1.727 5.568-2.241c1.606-.355 2.625-.504 3.556-.428-.692.049-1.496.194-2.556.428-1.191.376-3.615 1.399-4.834 1.923Zm15.931-.552c1.429-.067 2.697-.424 4.091-1.041 1.522-.722 3.615-1.195 5.309-1.089-1.467.082-3.076.504-4.309 1.089-1.71.757-3.23 1.123-5.091 1.041Z"/><path fill="#29b6f6" d="M58.065 37.515c1.942-.109 3.636.375 3.885 1.861.358 2.132-1.313 4.124-1.313 4.124s.022-.677-.11-1.476c.329-.738.586-1.678.423-2.648-.205-1.223-1.39-1.768-2.885-1.861Zm-10.517 4.206c5.199-.145 7.989-2.118 9.948-2.25.177 0 .339.025.489.07-1.986.391-4.825 2.14-9.834 2.187-.21.009-.41.006-.603-.007Zm-14.814-1.524c1.866-.323 4.799-.773 6.539-.747.109.001.216.005.321.01-2.855.115-7.594 1.055-7.594 1.055s.285-.125.734-.318Zm7.39-2.351c1.485-.106 2.453.225 4.325 1.052 1.647.45 3.004.693 4.216.747-1.466.068-3.101-.17-5.216-.747-1.422-.628-2.323-.97-3.325-1.052Z"/><path fill="#03a9f4" d="M28.98 36.118c-.128 1.427-.552 3.352-1.826 4.699-2.264 2.395-4.92-.087-3.962 8.23.958 8.316-7.456 13.392-7.456 13.392 3.047-3.92 1.447-7.122.533-9.691-.915-2.569-8.056-6.488-9.449-10.102-.773-2.004-.633-4.584-.355-6.484.428 1.522 5.306 2.725 11.252 2.725 6.003 0 10.917-1.226 11.263-2.769Z"/><path fill="#29b6f6" d="M17.677 60.992c-1.11.946-1.941 1.447-1.941 1.447 3.047-3.92 1.447-7.122.533-9.691-.915-2.569-8.056-6.488-9.449-10.102-.773-2.004-.633-4.584-.355-6.484.093.332.399.649.882.942-.182 1.756-.178 3.853.473 5.542 1.393 3.614 8.534 7.533 9.449 10.102.799 2.245 2.122 4.975.408 8.244Zm.54-22.108c5.774-.066 10.427-1.266 10.763-2.766-.031.353-.081.737-.158 1.135-1.849.968-5.681 1.634-10.105 1.634-.168 0-.335-.001-.5-.003Z"/><path fill="#039be5" d="M27.822 37.253c.66-.345 1.067-.729 1.158-1.135-.128 1.427-.552 3.352-1.826 4.699-2.264 2.395-4.92-.087-3.962 8.23.958 8.316-7.456 13.392-7.456 13.392.384-.493.694-.975.941-1.447 2.421-2.062 6.172-6.242 5.515-11.945-.958-8.317 1.698-5.835 3.962-8.23.958-1.013 1.436-2.354 1.668-3.564Zm-21.475-.149c.034-.328.074-.644.118-.942.416 1.479 5.035 2.657 10.752 2.722-.166.002-.333.003-.5.003-4.647 0-8.642-.735-10.37-1.783Z"/><path fill="#4fc3f7" d="M24.352 48.858c-1.969.499-4.656.802-7.616.802-2.801 0-5.359-.271-7.295-.724a1 1 0 0 0-.455 1.948c2.057.48 4.774.776 7.75.776 3.151 0 6.012-.332 8.108-.863a1 1 0 0 0-.492-1.939Z"/><path fill="#81d4fa" d="M17.236 51.658c-2.78-.032-5.309-.321-7.25-.774a1 1 0 0 1-.211-1.873 14.973 14.973 0 0 1-.334-.075 1 1 0 0 0-.455 1.948c2.057.48 4.774.776 7.75.776l.5-.002Zm0-2.001c.166.002.332.003.5.003 2.809 0 5.372-.273 7.309-.727a.996.996 0 0 0-.693-.075c-1.857.471-4.354.767-7.116.799Z"/><path fill="#29b6f6" d="M24.045 48.933a1 1 0 0 1-.201 1.864c-1.985.503-4.655.828-7.608.861l.5.002c3.151 0 6.012-.332 8.108-.863a1 1 0 0 0-.492-1.939c-.1.026-.203.051-.307.075Zm-15.27.078c1.893.408 4.318.649 6.961.649.167 0 .334-.001.5-.003-2.605-.03-4.974-.295-6.795-.721a1.002 1.002 0 0 0-.666.075Z"/><path fill="#4fc3f7" d="M26.977 44.77c-.041.045-.1.107-.15.146-.307.24-.759.453-1.322.653-1.977.704-5.171 1.148-8.769 1.148s-6.792-.444-8.77-1.148c-.562-.2-1.014-.413-1.321-.653-.074-.058-.165-.162-.194-.195a1 1 0 0 0-1.998.053c0 .76.554 1.613 1.811 2.245 1.964.988 5.915 1.698 10.472 1.698 4.557 0 8.508-.71 10.472-1.698 1.257-.632 1.811-1.485 1.811-2.245 0-.61-.318-1.25-1.061-1.794-.708-.519-1.892-1-3.426-1.362a1 1 0 1 0-.46 1.946c1.027.242 1.866.53 2.446.863.173.099.318.199.426.306.01.01.022.023.033.037Z"/><path fill="#81d4fa" d="M17.236 48.714c-4.345-.05-8.081-.743-9.972-1.695-1.257-.632-1.811-1.485-1.811-2.245a1 1 0 0 1 .5-.866 1 1 0 0 0-1.5.866c0 .76.554 1.613 1.811 2.245 1.964.988 5.915 1.698 10.472 1.698.168 0 .334-.001.5-.003Zm0-2c.165.002.332.003.5.003 3.598 0 6.792-.444 8.769-1.148.563-.2 1.015-.413 1.322-.653.05-.039.109-.101.15-.146a.427.427 0 0 0-.033-.037 2.063 2.063 0 0 0-.426-.306c-.58-.333-1.419-.621-2.446-.863a1 1 0 0 1-.218-1.867 12.655 12.655 0 0 0-.322-.079 1 1 0 1 0-.46 1.946c1.027.242 1.866.53 2.446.863.173.099.318.199.426.306.01.01.022.023.033.037-.041.045-.1.107-.15.146-.307.24-.759.453-1.322.653-1.885.671-4.876 1.106-8.269 1.145Z"/><path fill="#29b6f6" d="M23.854 41.697c1.378.352 2.446.801 3.104 1.283.743.544 1.061 1.184 1.061 1.794 0 .76-.554 1.613-1.811 2.245-1.892.952-5.627 1.645-9.972 1.695.165.002.332.003.5.003 4.557 0 8.508-.71 10.472-1.698 1.257-.632 1.811-1.485 1.811-2.245 0-.61-.318-1.25-1.061-1.794-.708-.519-1.892-1-3.426-1.362a.989.989 0 0 0-.678.079ZM4.953 43.908c.284.164.48.465.498.813.029.033.12.137.194.195.307.24.759.453 1.321.653 1.978.704 5.172 1.148 8.77 1.148.168 0 .334-.001.5-.003-3.393-.039-6.384-.474-8.27-1.145-.562-.2-1.014-.413-1.321-.653-.074-.058-.165-.162-.194-.195a1 1 0 0 0-1.498-.813Z"/><path fill="#4fc3f7" d="M4.049 40.853a2.11 2.11 0 0 1 .315-.268c.465-.299 1.143-.56 1.978-.791a1 1 0 1 0-.533-1.928c-1.313.363-2.311.825-2.908 1.312-.63.514-.901 1.102-.901 1.671 0 .761.554 1.614 1.811 2.246 1.964.987 5.915 1.697 10.472 1.697 2.425 0 4.677-.196 6.539-.528a1 1 0 0 0-.351-1.969c-1.762.315-3.893.497-6.188.497-3.598 0-6.792-.444-8.77-1.147-.562-.2-1.014-.413-1.321-.653a1.344 1.344 0 0 1-.143-.139Z"/><path fill="#81d4fa" d="M14.786 44.79c-4.346-.05-8.083-.744-9.975-1.695C3.554 42.463 3 41.61 3 40.849c0-.569.271-1.157.901-1.671.555-.453 1.458-.884 2.637-1.234a.998.998 0 0 0-.729-.078c-1.313.363-2.311.825-2.908 1.312-.63.514-.901 1.102-.901 1.671 0 .761.554 1.614 1.811 2.246 1.964.987 5.915 1.697 10.472 1.697.169 0 .336 0 .503-.002Zm-.006-2 .503.002c2.116 0 4.094-.155 5.77-.426a.989.989 0 0 0-.582-.071c-1.634.292-3.586.47-5.691.495Z"/><path fill="#29b6f6" d="M20.053 42.366a.998.998 0 0 1-.231 1.898c-1.732.309-3.803.501-6.036.526.164.002.33.002.497.002 2.425 0 4.677-.196 6.539-.528a1 1 0 0 0-.351-1.969c-.137.024-.276.048-.418.071ZM5.538 37.944a1 1 0 0 1-.196 1.85c-.835.231-1.513.492-1.978.791a2.11 2.11 0 0 0-.315.268c.04.044.095.101.143.139.307.24.759.453 1.321.653 1.978.703 5.172 1.147 8.77 1.147l.497-.002c-3.391-.04-6.381-.474-8.267-1.145-.562-.2-1.014-.413-1.321-.653a1.344 1.344 0 0 1-.143-.139 2.11 2.11 0 0 1 .315-.268c.465-.299 1.143-.56 1.978-.791a1 1 0 1 0-.533-1.928l-.271.078Z"/><path fill="#4fc3f7" d="M23.127 53.351c-.127.07-.46.246-.758.335-.814.245-1.939.389-3.18.389-1.242 0-2.367-.144-3.181-.389a2.159 2.159 0 0 1-.221-.078c.128-.052.264-.101.395-.136a1 1 0 0 0-.517-1.932c-.951.254-1.629.642-1.966 1.022-.291.328-.416.686-.416 1.042 0 .522.297 1.108 1.047 1.541.912.528 2.742.93 4.859.93 2.116 0 3.946-.402 4.858-.93.75-.433 1.047-1.019 1.047-1.541a1 1 0 0 0-1.967-.253Z"/><path fill="#81d4fa" d="M19.689 56.068c-1.903-.057-3.519-.437-4.359-.923-.75-.433-1.047-1.019-1.047-1.541 0-.356.125-.714.416-1.042.303-.342.883-.69 1.689-.942a.998.998 0 0 0-.723-.08c-.951.254-1.629.642-1.966 1.022-.291.328-.416.686-.416 1.042 0 .522.297 1.108 1.047 1.541.912.528 2.742.93 4.859.93.168 0 .335-.002.5-.007Zm0-2c.164.005.331.007.5.007 1.241 0 2.366-.144 3.18-.389.298-.089.631-.265.758-.335.068-.261.239-.481.467-.613a1 1 0 0 0-1.467.613c-.127.07-.46.246-.758.335-.703.211-1.638.348-2.68.382Z"/><path fill="#29b6f6" d="M23.594 52.738a1 1 0 0 1 .5.866c0 .522-.297 1.108-1.047 1.541-.839.486-2.456.866-4.358.923.164.005.331.007.5.007 2.116 0 3.946-.402 4.858-.93.75-.433 1.047-1.019 1.047-1.541a1 1 0 0 0-1.5-.866Zm-8.206-1.118a.999.999 0 0 1-.206 1.852 3.415 3.415 0 0 0-.395.136c.073.03.148.057.221.078.814.245 1.939.389 3.181.389.169 0 .335-.002.5-.007-1.042-.034-1.978-.171-2.681-.382a2.159 2.159 0 0 1-.221-.078c.128-.052.264-.101.395-.136a1 1 0 0 0-.517-1.932 6.094 6.094 0 0 0-.277.08Z"/><path fill="#4fc3f7" d="M22.574 57.048a2.384 2.384 0 0 1-.205.072c-.814.245-1.939.389-3.18.389-1.242 0-2.367-.144-3.181-.389a4.286 4.286 0 0 1-.757-.335 1 1 0 0 0-1.968.253c0 .522.297 1.108 1.047 1.541.912.528 2.742.93 4.859.93 2.116 0 3.946-.402 4.858-.93.75-.433 1.047-1.019 1.047-1.541 0-.381-.142-.766-.482-1.114-.388-.397-1.173-.792-2.247-1.036a1 1 0 0 0-.443 1.95c.219.05.449.13.652.21Z"/><path fill="#81d4fa" d="M19.689 59.502c-1.903-.058-3.519-.437-4.359-.923-.75-.433-1.047-1.019-1.047-1.541a1 1 0 0 1 .5-.866 1 1 0 0 0-1.5.866c0 .522.297 1.108 1.047 1.541.912.528 2.742.93 4.859.93.168 0 .335-.002.5-.007Zm0-2.001c.164.006.331.008.5.008 1.241 0 2.366-.144 3.18-.389.068-.02.137-.045.205-.072a4.68 4.68 0 0 0-.652-.21 1 1 0 0 1-.227-1.868 8.843 8.843 0 0 0-.33-.082 1 1 0 0 0-.443 1.95c.219.05.449.13.652.21a2.384 2.384 0 0 1-.205.072c-.703.211-1.638.348-2.68.381Z"/><path fill="#29b6f6" d="M21.695 54.97c.905.245 1.57.599 1.917.954.34.348.482.733.482 1.114 0 .522-.297 1.108-1.047 1.541-.839.486-2.456.865-4.358.923.164.005.331.007.5.007 2.116 0 3.946-.402 4.858-.93.75-.433 1.047-1.019 1.047-1.541 0-.381-.142-.766-.482-1.114-.388-.397-1.173-.792-2.247-1.036a.996.996 0 0 0-.67.082Zm-7.912 1.202c.228.132.4.352.468.613.126.07.459.246.757.335.814.245 1.939.389 3.181.389.169 0 .335-.002.5-.008-1.042-.033-1.978-.17-2.681-.381a4.286 4.286 0 0 1-.757-.335 1 1 0 0 0-1.468-.613Z"/></svg>